<?xml version="1.0" encoding="UTF-8" standalone="no"?>
<!DOCTYPE svg PUBLIC "-//W3C//DTD SVG 1.1//EN" "http://www.w3.org/Graphics/SVG/1.1/DTD/svg11.dtd">
<svg version="1.1" xmlns="http://www.w3.org/2000/svg" xmlns:xlink="http://www.w3.org/1999/xlink" preserveAspectRatio="xMidYMid meet" viewBox="0 0 1500 1500" width="1500" height="1500"><defs><path d="M603.18 555.77C612.58 555.77 620.2 568.88 620.2 585.06C620.2 588.16 620.2 603.67 620.2 631.58L239.35 631.58C239.35 603.67 239.35 588.16 239.35 585.06C239.35 568.88 246.97 555.77 256.37 555.77C256.37 555.77 568.5 555.77 603.18 555.77Z" id="a14EuPRTc"></path><path d="M591.56 551.83C590.31 543.13 585.2 537.84 580.14 540C575.94 541.8 572.98 548.31 572.99 555.77C572.99 555.85 573 555.92 573 556C571.82 556.2 570.66 556.61 569.53 557.24C568.88 552.82 567.19 549.07 564.86 546.89C567.89 544.01 570.28 539.51 571.67 534.07C579.38 533.85 585.58 524.27 585.58 512.44C585.58 500.48 579.24 490.78 571.42 490.78C569.7 490.8 568 491.29 566.38 492.26C565.2 483.55 560.13 478.15 555.07 480.19C550.01 482.24 546.87 490.95 548.06 499.66C548.12 500.13 548.2 500.6 548.29 501.06C547.91 501.51 547.56 502.01 547.21 502.52C545.43 499.88 543.12 498.56 540.77 498.83C537.93 484.76 528.99 477.33 520.81 482.23C514.61 485.95 510.41 495.93 510.29 507.23C509.03 507.4 507.78 507.83 506.58 508.5C506.44 507.59 506.26 506.69 506.04 505.83C508.55 502.02 510 496.55 510.04 490.78C510.04 478.82 503.7 469.12 495.88 469.12C494.16 469.13 492.46 469.63 490.84 470.6C489.65 461.89 484.59 456.49 479.53 458.53C474.47 460.58 471.33 469.29 472.52 478C472.58 478.47 472.66 478.94 472.75 479.4C468.73 484.2 466.24 491.94 466.02 500.35C465.89 500.55 465.73 500.72 465.61 500.93C465.84 499.39 465.97 497.8 465.97 496.2C465.97 484.23 459.63 474.54 451.81 474.54C450.1 474.55 448.4 475.05 446.78 476.01C445.59 467.31 440.52 461.9 435.46 463.95C430.4 465.99 427.26 474.7 428.45 483.41C428.52 483.88 428.59 484.35 428.68 484.81C421.55 493.29 419.76 510.11 424.69 522.38C425.77 525.07 427.12 527.39 428.68 529.25C428.04 532.39 428.04 535.82 428.68 538.96C427.1 540.86 425.74 543.23 424.65 545.96C423.28 537.36 418.11 532.32 413.11 534.69C409.36 536.46 406.64 542.03 406.27 548.69C405 547.42 403.64 546.47 402.22 545.88C404.77 542.99 406.78 538.88 408 534.07C415.7 533.85 421.91 524.27 421.91 512.44C421.91 500.48 415.57 490.78 407.74 490.78C406.03 490.8 404.33 491.29 402.71 492.26C401.52 483.55 396.46 478.15 391.4 480.19C386.34 482.24 383.2 490.95 384.38 499.66C384.45 500.13 384.53 500.6 384.61 501.06C384.41 501.3 384.23 501.58 384.04 501.84C383.54 501.76 383.07 501.61 382.56 501.61C380.85 501.63 379.15 502.12 377.53 503.09C377.47 502.68 377.37 502.3 377.29 501.9C378.38 493.29 375.21 484.79 370.2 482.92C369.37 482.61 368.51 482.49 367.66 482.59C364.72 468.52 355.72 461.22 347.54 466.27C339.37 471.32 335.13 486.81 338.06 500.87C339.03 505.51 340.72 509.61 342.95 512.72C341.86 512.94 340.79 513.34 339.76 513.92C338.54 505.28 333.48 499.97 328.46 502.07C327.11 502.63 325.85 503.7 324.77 505.21C321.93 499.4 317.73 496.1 313.32 496.2C311.6 496.21 309.9 496.71 308.28 497.67C307.09 488.97 302.03 483.56 296.97 485.61C291.91 487.65 288.77 496.37 289.96 505.07C290.02 505.54 290.1 506.01 290.19 506.47C285.95 511.52 283.42 519.82 283.41 528.69C283.41 528.77 283.43 528.85 283.43 528.93C281.2 528.35 278.92 528.78 276.81 530.16C275.62 521.46 270.55 516.06 265.49 518.1C260.43 520.14 257.29 528.86 258.48 537.56C258.55 538.04 258.62 538.5 258.71 538.96C251.54 547.31 249.67 564.08 254.52 576.41C258.17 585.68 264.77 590.11 271.1 587.54C272.58 602.22 280.69 612.06 289.22 609.52C294.26 608.03 298.55 602.41 300.73 594.46C304.43 607.94 313.78 613.7 321.61 607.33C325.06 604.53 327.8 599.66 329.31 593.63C331.17 593.59 333 592.98 334.73 591.83C337.59 605.9 346.53 613.32 354.7 608.41C358.85 605.93 362.2 600.56 363.93 593.63C366.23 593.55 368.49 592.59 370.54 590.82C374.8 603.78 384.36 608.34 391.89 601.01C394.86 598.11 397.21 593.62 398.56 588.22C399.4 588.18 400.24 588.03 401.07 587.76C404.38 601.58 413.58 608.16 421.6 602.46C425.38 599.78 428.41 594.67 430.03 588.22C431.27 588.16 432.5 587.85 433.69 587.29C440.19 590.4 447.1 585.86 450.73 576.09C448.56 590.57 453.62 605.33 462.04 609.06C469.53 612.39 477.31 605.84 480.4 593.63C482.69 593.55 484.95 592.59 487 590.82C491.26 603.78 500.82 608.34 508.35 601.01C511.32 598.11 513.67 593.62 515.02 588.22C517.31 588.14 519.57 587.18 521.62 585.41C525.83 598.31 535.32 602.9 542.82 595.66C543.57 594.94 544.28 594.11 544.95 593.19C546.5 607.84 554.65 617.56 563.17 614.9C567.1 613.67 570.61 609.91 572.98 604.37C579.84 613.41 589.65 611.17 594.9 599.39C595.69 597.61 596.34 595.68 596.86 593.63C604.56 593.42 610.76 583.84 610.76 572.01C610.76 560.05 604.42 550.35 596.6 550.35C594.88 550.36 593.18 550.86 591.56 551.83ZM315.23 539.57C315.11 539.56 315.01 539.52 314.89 539.52C314.42 539.54 313.95 539.62 313.49 539.76C313.51 539.67 313.55 539.58 313.57 539.48C314.14 539.43 314.71 539.33 315.27 539.17C315.26 539.3 315.25 539.44 315.23 539.57ZM446.6 529.25C449 526.38 450.89 522.43 452.07 517.82C456.25 517.78 460.23 514.68 463.01 509.29C462.89 510.33 462.83 511.39 462.83 512.44C462.84 514.1 463 515.74 463.3 517.3C460.6 520.54 458.56 525.16 457.45 530.5C454.03 528.21 450.24 528.09 446.78 530.16C446.73 529.85 446.65 529.56 446.6 529.25ZM541.05 531.18C541.45 531.18 541.85 531.13 542.25 531.04C542.86 534.54 543.88 537.8 545.25 540.6C544.95 540.74 544.64 540.83 544.35 540.99C543.84 537.51 542.68 534.42 541.05 532.18C541.04 531.85 541.06 531.51 541.05 531.18Z" id="a2sSqk8PtD"></path><path d="M271.05 582.84C252.9 582.84 238.19 608.15 238.19 639.38C238.19 640.39 238.2 641.41 238.24 642.42C240.37 692.85 257.42 1096.24 259.55 1146.67C260.48 1176.68 274.9 1200.19 292.37 1200.18C319.85 1200.18 539.7 1200.18 567.18 1200.18C584.65 1200.19 599.07 1176.68 600 1146.67C602.14 1096.24 619.19 692.85 621.32 642.42C622.29 611.24 608.39 584.6 590.27 582.92C589.68 582.87 589.09 582.84 588.5 582.84C525.01 582.84 334.54 582.84 271.05 582.84Z" id="ig2IKTrqo"></path><path d="M305.45 582.84C305.45 582.84 305.45 582.84 305.45 582.84C305.45 953.25 305.45 1159.03 305.45 1200.18C305.45 1200.18 305.45 1200.18 305.45 1200.18C294.12 1200.18 287.82 1200.18 286.56 1200.18C286.56 1200.18 286.56 1200.18 286.56 1200.18C286.56 829.78 286.56 624 286.56 582.84C286.56 582.84 286.56 582.84 286.56 582.84C297.89 582.84 304.19 582.84 305.45 582.84Z" id="a1Hk6MhgpJ"></path><path d="M358.96 582.84C358.96 582.84 358.96 582.84 358.96 582.84C358.96 953.25 358.96 1159.03 358.96 1200.18C358.96 1200.18 358.96 1200.18 358.96 1200.18C347.62 1200.18 341.33 1200.18 340.07 1200.18C340.07 1200.18 340.07 1200.18 340.07 1200.18C340.07 829.78 340.07 624 340.07 582.84C340.07 582.84 340.07 582.84 340.07 582.84C351.4 582.84 357.7 582.84 358.96 582.84Z" id="b10xZPKUer"></path><path d="M412.46 582.84C412.46 582.84 412.46 582.84 412.46 582.84C412.46 953.25 412.46 1159.03 412.46 1200.18C412.46 1200.18 412.46 1200.18 412.46 1200.18C401.13 1200.18 394.84 1200.18 393.58 1200.18C393.58 1200.18 393.58 1200.18 393.58 1200.18C393.58 829.78 393.58 624 393.58 582.84C393.58 582.84 393.58 582.84 393.58 582.84C404.91 582.84 411.21 582.84 412.46 582.84Z" id="b8hdlMdoV"></path><path d="M465.97 582.84C465.97 582.84 465.97 582.84 465.97 582.84C465.97 953.25 465.97 1159.03 465.97 1200.18C465.97 1200.18 465.97 1200.18 465.97 1200.18C454.64 1200.18 448.35 1200.18 447.09 1200.18C447.09 1200.18 447.09 1200.18 447.09 1200.18C447.09 829.78 447.09 624 447.09 582.84C447.09 582.84 447.09 582.84 447.09 582.84C458.42 582.84 464.71 582.84 465.97 582.84Z" id="a1spqdbri"></path><path d="M519.48 582.84C519.48 582.84 519.48 582.84 519.48 582.84C519.48 953.25 519.48 1159.03 519.48 1200.18C519.48 1200.18 519.48 1200.18 519.48 1200.18C508.15 1200.18 501.86 1200.18 500.6 1200.18C500.6 1200.18 500.6 1200.18 500.6 1200.18C500.6 829.78 500.6 624 500.6 582.84C500.6 582.84 500.6 582.84 500.6 582.84C511.93 582.84 518.22 582.84 519.48 582.84Z" id="f1u6rFI365"></path><path d="M572.99 582.84C572.99 582.84 572.99 582.84 572.99 582.84C572.99 953.25 572.99 1159.03 572.99 1200.18C572.99 1200.18 572.99 1200.18 572.99 1200.18C561.66 1200.18 555.36 1200.18 554.11 1200.18C554.11 1200.18 554.11 1200.18 554.11 1200.18C554.11 829.78 554.11 624 554.11 582.84C554.11 582.84 554.11 582.84 554.11 582.84C565.44 582.84 571.73 582.84 572.99 582.84Z" id="b1pEXARbTZ"></path><path d="M881.1 329.76L872.87 295.26C807.01 341.78 770.42 367.62 763.1 372.79C758.02 376.39 754.7 384.9 754.7 394.36C754.7 407.96 754.7 475.98 754.7 598.4L776.38 598.4L776.38 403.77L881.1 329.76Z" id="b3cPYzLuxC"></path><path d="M867 257.77C867 257.77 867 257.77 867 257.77C867 335.05 867 377.99 867 386.58C867 386.58 867 386.58 867 386.58C852.81 386.58 844.93 386.58 843.36 386.58C843.36 386.58 843.36 386.58 843.36 386.58C843.36 309.29 843.36 266.35 843.36 257.77C843.36 257.77 843.36 257.77 843.36 257.77C857.54 257.77 865.42 257.77 867 257.77Z" id="c4gwTtlKF"></path><path d="M829.57 284.88C829.57 284.88 829.57 284.88 829.57 284.88C829.57 362.17 829.57 405.1 829.57 413.69C829.57 413.69 829.57 413.69 829.57 413.69C815.38 413.69 807.5 413.69 805.93 413.69C805.93 413.69 805.93 413.69 805.93 413.69C805.93 336.4 805.93 293.47 805.93 284.88C805.93 284.88 805.93 284.88 805.93 284.88C820.11 284.88 827.99 284.88 829.57 284.88Z" id="a4NheFYs3N"></path><path d="M776.37 403.52L769.47 266.24L793.11 266.24L793.11 395.05L793.11 395.05L776.37 403.52Z" id="f2p14UxqJR"></path><path d="M806.9 410.3C806.9 410.3 806.9 410.3 806.9 410.3C806.9 434.7 806.9 448.26 806.9 450.97C806.9 450.97 806.9 450.97 806.9 450.97C761.98 450.97 737.02 450.97 732.03 450.97C732.03 450.97 732.03 450.97 732.03 450.97C732.03 426.57 732.03 413.01 732.03 410.3C732.03 410.3 732.03 410.3 732.03 410.3C776.95 410.3 801.91 410.3 806.9 410.3Z" id="b2fK4h83M6"></path><path d="M806.91 466.25C806.91 466.25 806.91 466.25 806.91 466.25C806.91 490.65 806.91 504.2 806.91 506.92C806.91 506.92 806.91 506.92 806.91 506.92C761.99 506.92 737.03 506.92 732.04 506.92C732.04 506.92 732.04 506.92 732.04 506.92C732.04 482.51 732.04 468.96 732.04 466.25C732.04 466.25 732.04 466.25 732.04 466.25C776.96 466.25 801.92 466.25 806.91 466.25Z" id="aCl3QcPIy"></path><path d="M806.9 522.19C806.9 522.19 806.9 522.19 806.9 522.19C806.9 546.59 806.9 560.15 806.9 562.86C806.9 562.86 806.9 562.86 806.9 562.86C761.98 562.86 737.02 562.86 732.03 562.86C732.03 562.86 732.03 562.86 732.03 562.86C732.03 538.46 732.03 524.9 732.03 522.19C732.03 522.19 732.03 522.19 732.03 522.19C776.95 522.19 801.91 522.19 806.9 522.19Z" id="b1lHOcZ5qP"></path><path d="M698.54 1200.18L663.07 589.97L874.89 589.97L843.36 1200.18L843.36 1200.18L698.54 1200.18Z" id="b2hlHHGK3N"></path><path d="M890.65 579.81C890.65 579.81 890.65 579.81 890.65 579.81C890.65 604.21 890.65 617.77 890.65 620.48C890.65 620.48 890.65 620.48 890.65 620.48C745.24 620.48 664.45 620.48 648.29 620.48C648.29 620.48 648.29 620.48 648.29 620.48C648.29 596.07 648.29 582.52 648.29 579.81C648.29 579.81 648.29 579.81 648.29 579.81C793.71 579.81 874.49 579.81 890.65 579.81Z" id="almckIKJL"></path><path d="M1137.21 154.4C1092.23 154.4 1055.76 217.14 1055.76 294.53C1055.76 371.92 1092.23 434.66 1137.21 434.66C1182.19 434.66 1218.66 371.92 1218.66 294.53C1218.66 217.14 1182.19 154.4 1137.21 154.4Z" id="b1ol5qfT0f"></path><path d="M1109.62 363.45L1109.62 294.53L1109.62 225.62L1191.14 294.53L1191.14 294.53L1109.62 363.45Z" id="b1r7wWTO"></path><linearGradient id="gradientbbu9QrMBy" gradientUnits="userSpaceOnUse" x1="1150.38" y1="363.45" x2="1150.38" y2="225.62"><stop style="stop-color: #000000;stop-opacity: 0.12" offset="0%"></stop><stop style="stop-color: #000000;stop-opacity: 0.09" offset="55.00000000000001%"></stop><stop style="stop-color: #000000;stop-opacity: 0.02" offset="100%"></stop></linearGradient><path d="M1114.51 355.18L1114.51 294.53L1114.51 233.88L1186.24 294.53L1186.24 294.53L1114.51 355.18Z" id="c1IcVpHLio"></path><path d="M1143.96 170.56C1168.22 170.59 1191.21 189.22 1206.67 221.37C1183.29 155.22 1133.17 134.21 1094.73 174.43C1056.28 214.65 1044.06 300.87 1067.44 367.02C1069.52 372.9 1071.85 378.51 1074.4 383.8C1066.55 361.79 1062.4 336.45 1062.42 310.62C1062.46 233.2 1098.97 170.5 1143.96 170.56Z" id="aRtbJbgNE"></path><path d="M1122.9 1021.83C1120.93 1021.84 1119.32 1024.59 1119.32 1027.99C1119.32 1044.6 1119.32 1177.42 1119.32 1194.02C1119.32 1197.43 1120.93 1200.18 1122.9 1200.18C1139.52 1200.18 1272.42 1200.18 1289.03 1200.18C1291.01 1200.18 1292.61 1197.43 1292.61 1194.02C1292.61 1177.42 1292.61 1044.6 1292.61 1027.99C1292.61 1024.59 1291.01 1021.84 1289.03 1021.83C1255.81 1021.83 1156.13 1021.83 1122.9 1021.83Z" id="aNPx3UOD8"></path><path d="M1141.47 1036.48C1137.79 1036.48 1134.8 1041.62 1134.8 1047.96C1134.8 1060.57 1134.8 1161.45 1134.8 1174.06C1134.8 1180.4 1137.79 1185.53 1141.47 1185.54C1154.37 1185.54 1257.57 1185.54 1270.47 1185.54C1274.15 1185.53 1277.13 1180.4 1277.14 1174.06C1277.14 1161.45 1277.14 1060.57 1277.14 1047.96C1277.13 1041.62 1274.15 1036.48 1270.47 1036.48C1244.67 1036.48 1167.27 1036.48 1141.47 1036.48Z" id="b2L3pMPFk"></path><path d="M1124.77 1076.52C1124.77 1076.52 1124.77 1076.52 1124.77 1076.52C1124.77 1097.21 1124.77 1108.71 1124.77 1111.01C1124.77 1111.01 1124.77 1111.01 1124.77 1111.01C1072.85 1111.01 1044.01 1111.01 1038.24 1111.01C1038.24 1111.01 1038.24 1111.01 1038.24 1111.01C1038.24 1090.32 1038.24 1078.82 1038.24 1076.52C1038.24 1076.52 1038.24 1076.52 1038.24 1076.52C1090.16 1076.52 1119 1076.52 1124.77 1076.52Z" id="ghbMXLMNS"></path><path d="M887.66 1021.83C885.68 1021.84 884.08 1024.59 884.08 1027.99C884.08 1044.6 884.08 1177.42 884.08 1194.02C884.08 1197.42 885.68 1200.18 887.66 1200.18C904.27 1200.18 1037.17 1200.18 1053.79 1200.18C1055.76 1200.18 1057.36 1197.42 1057.37 1194.02C1057.37 1177.42 1057.37 1044.6 1057.37 1027.99C1057.36 1024.59 1055.76 1021.84 1053.79 1021.83C1020.56 1021.83 920.88 1021.83 887.66 1021.83Z" id="baqaTXvCc"></path><path d="M906.23 1036.48C902.54 1036.48 899.55 1041.62 899.55 1047.96C899.55 1060.57 899.55 1161.45 899.55 1174.06C899.55 1180.4 902.54 1185.54 906.23 1185.54C919.13 1185.54 1022.32 1185.54 1035.22 1185.54C1038.9 1185.54 1041.89 1180.4 1041.9 1174.06C1041.9 1161.45 1041.9 1060.57 1041.9 1047.96C1041.89 1041.62 1038.9 1036.48 1035.22 1036.48C1009.42 1036.48 932.02 1036.48 906.23 1036.48Z" id="bxVR4jRtb"></path></defs><g><g><g><use xlink:href="#a14EuPRTc" opacity="1" fill="#3f3d56" fill-opacity="1"></use><g><use xlink:href="#a14EuPRTc" opacity="1" fill-opacity="0" stroke="#000000" stroke-width="1" stroke-opacity="0"></use></g></g><g><use xlink:href="#a2sSqk8PtD" opacity="1" fill="#f9a825" fill-opacity="1"></use><g><use xlink:href="#a2sSqk8PtD" opacity="1" fill-opacity="0" stroke="#000000" stroke-width="1" stroke-opacity="0"></use></g></g><g><use xlink:href="#ig2IKTrqo" opacity="1" fill="#e7441b" fill-opacity="1"></use><g><use xlink:href="#ig2IKTrqo" opacity="1" fill-opacity="0" stroke="#000000" stroke-width="1" stroke-opacity="0"></use></g></g><g><use xlink:href="#a1Hk6MhgpJ" opacity="1" fill="#6c63ff" fill-opacity="1"></use><g><use xlink:href="#a1Hk6MhgpJ" opacity="1" fill-opacity="0" stroke="#000000" stroke-width="1" stroke-opacity="0"></use></g></g><g><use xlink:href="#b10xZPKUer" opacity="1" fill="#6c63ff" fill-opacity="1"></use><g><use xlink:href="#b10xZPKUer" opacity="1" fill-opacity="0" stroke="#000000" stroke-width="1" stroke-opacity="0"></use></g></g><g><use xlink:href="#b8hdlMdoV" opacity="1" fill="#6c63ff" fill-opacity="1"></use><g><use xlink:href="#b8hdlMdoV" opacity="1" fill-opacity="0" stroke="#000000" stroke-width="1" stroke-opacity="0"></use></g></g><g><use xlink:href="#a1spqdbri" opacity="1" fill="#6c63ff" fill-opacity="1"></use><g><use xlink:href="#a1spqdbri" opacity="1" fill-opacity="0" stroke="#000000" stroke-width="1" stroke-opacity="0"></use></g></g><g><use xlink:href="#f1u6rFI365" opacity="1" fill="#6c63ff" fill-opacity="1"></use><g><use xlink:href="#f1u6rFI365" opacity="1" fill-opacity="0" stroke="#000000" stroke-width="1" stroke-opacity="0"></use></g></g><g><use xlink:href="#b1pEXARbTZ" opacity="1" fill="#6c63ff" fill-opacity="1"></use><g><use xlink:href="#b1pEXARbTZ" opacity="1" fill-opacity="0" stroke="#000000" stroke-width="1" stroke-opacity="0"></use></g></g><g><use xlink:href="#b3cPYzLuxC" opacity="1" fill="#3f3d56" fill-opacity="1"></use><g><use xlink:href="#b3cPYzLuxC" opacity="1" fill-opacity="0" stroke="#000000" stroke-width="1" stroke-opacity="0"></use></g></g><g><use xlink:href="#c4gwTtlKF" opacity="1" fill="#6c63ff" fill-opacity="1"></use><g><use xlink:href="#c4gwTtlKF" opacity="1" fill-opacity="0" stroke="#000000" stroke-width="1" stroke-opacity="0"></use></g></g><g><use xlink:href="#a4NheFYs3N" opacity="1" fill="#6c63ff" fill-opacity="1"></use><g><use xlink:href="#a4NheFYs3N" opacity="1" fill-opacity="0" stroke="#000000" stroke-width="1" stroke-opacity="0"></use></g></g><g><use xlink:href="#f2p14UxqJR" opacity="1" fill="#6c63ff" fill-opacity="1"></use><g><use xlink:href="#f2p14UxqJR" opacity="1" fill-opacity="0" stroke="#000000" stroke-width="1" stroke-opacity="0"></use></g></g><g><use xlink:href="#b2fK4h83M6" opacity="1" fill="#6c63ff" fill-opacity="1"></use><g><use xlink:href="#b2fK4h83M6" opacity="1" fill-opacity="0" stroke="#000000" stroke-width="1" stroke-opacity="0"></use></g></g><g><use xlink:href="#aCl3QcPIy" opacity="1" fill="#6c63ff" fill-opacity="1"></use><g><use xlink:href="#aCl3QcPIy" opacity="1" fill-opacity="0" stroke="#000000" stroke-width="1" stroke-opacity="0"></use></g></g><g><use xlink:href="#b1lHOcZ5qP" opacity="1" fill="#6c63ff" fill-opacity="1"></use><g><use xlink:href="#b1lHOcZ5qP" opacity="1" fill-opacity="0" stroke="#000000" stroke-width="1" stroke-opacity="0"></use></g></g><g><use xlink:href="#b2hlHHGK3N" opacity="1" fill="#4cde12" fill-opacity="1"></use><g><use xlink:href="#b2hlHHGK3N" opacity="1" fill-opacity="0" stroke="#000000" stroke-width="1" stroke-opacity="0"></use></g></g><g><use xlink:href="#almckIKJL" opacity="1" fill="#3f3d56" fill-opacity="1"></use><g><use xlink:href="#almckIKJL" opacity="1" fill-opacity="0" stroke="#000000" stroke-width="1" stroke-opacity="0"></use></g></g><g><use xlink:href="#b1ol5qfT0f" opacity="1" fill="#3ad29f" fill-opacity="1"></use><g><use xlink:href="#b1ol5qfT0f" opacity="1" fill-opacity="0" stroke="#000000" stroke-width="1" stroke-opacity="0"></use></g></g><g><use xlink:href="#b1r7wWTO" opacity="1" fill="url(#gradientbbu9QrMBy)"></use><g><use xlink:href="#b1r7wWTO" opacity="1" fill-opacity="0" stroke="#000000" stroke-width="1" stroke-opacity="0"></use></g></g><g><use xlink:href="#c1IcVpHLio" opacity="1" fill="#ffffff" fill-opacity="1"></use><g><use xlink:href="#c1IcVpHLio" opacity="1" fill-opacity="0" stroke="#000000" stroke-width="1" stroke-opacity="0"></use></g></g><g><use xlink:href="#aRtbJbgNE" opacity="1" fill="#ffffff" fill-opacity="1"></use><g><use xlink:href="#aRtbJbgNE" opacity="1" fill-opacity="0" stroke="#000000" stroke-width="1" stroke-opacity="0"></use></g></g><g><use xlink:href="#aNPx3UOD8" opacity="1" fill="#3f3d56" fill-opacity="1"></use><g><use xlink:href="#aNPx3UOD8" opacity="1" fill-opacity="0" stroke="#000000" stroke-width="1" stroke-opacity="0"></use></g></g><g><use xlink:href="#b2L3pMPFk" opacity="1" fill="#ff6584" fill-opacity="1"></use><g><use xlink:href="#b2L3pMPFk" opacity="1" fill-opacity="0" stroke="#000000" stroke-width="1" stroke-opacity="0"></use></g></g><g><use xlink:href="#ghbMXLMNS" opacity="1" fill="#3f3d56" fill-opacity="1"></use><g><use xlink:href="#ghbMXLMNS" opacity="1" fill-opacity="0" stroke="#000000" stroke-width="1" stroke-opacity="0"></use></g></g><g><use xlink:href="#baqaTXvCc" opacity="1" fill="#3f3d56" fill-opacity="1"></use><g><use xlink:href="#baqaTXvCc" opacity="1" fill-opacity="0" stroke="#000000" stroke-width="1" stroke-opacity="0"></use></g></g><g><use xlink:href="#bxVR4jRtb" opacity="1" fill="#6c63ff" fill-opacity="1"></use><g><use xlink:href="#bxVR4jRtb" opacity="1" fill-opacity="0" stroke="#000000" stroke-width="1" stroke-opacity="0"></use></g></g></g></g></svg>