<?xml version="1.0" encoding="UTF-8" standalone="no"?>
<!DOCTYPE svg PUBLIC "-//W3C//DTD SVG 1.1//EN" "http://www.w3.org/Graphics/SVG/1.1/DTD/svg11.dtd">
<svg version="1.1" xmlns="http://www.w3.org/2000/svg" xmlns:xlink="http://www.w3.org/1999/xlink" preserveAspectRatio="xMidYMid meet" viewBox="0 0 1500 1500" width="1500" height="1500"><defs><path d="M1170.34 1419.57C1170.34 1429.15 1104.49 1436.93 1023.25 1436.93C942.02 1436.93 876.17 1429.15 876.17 1419.57C876.17 1409.98 942.02 1402.2 1023.25 1402.2C1104.49 1402.2 1170.34 1409.98 1170.34 1419.57Z" id="a181y8Ewq1"></path><path d="M841.33 53.15C1052.85 166.76 1206.95 382.43 1329.38 602.15C1373.71 681.71 1415.82 764.77 1432.48 853.58C1466.41 1034.36 1377.91 1221.5 1227.4 1287.08C1176.22 1309.41 1119.98 1318.56 1063.67 1323.66C963.52 1332.74 859.83 1329.14 760.49 1295.5C689.65 1271.45 622.63 1232.78 558.35 1190.06C378.84 1070.68 214.91 915.64 96.87 726.27C45.09 643.21 1.3 549.57 0.03 453.73C-1.23 357.89 50.93 261.59 136.75 245.29C172.23 238.56 209.76 245.56 246.37 252.78C300.28 263.41 354.92 274.59 408.21 269.95C463.27 265.12 534.88 239.36 544.92 176.43C555.54 108.86 565.65 49.82 630.35 21.02C695.13 -7.81 773.99 16.98 841.33 53.15Z" id="b3eFCxzSCd"></path><path d="M411.01 1373.3C411.01 1373.3 412.63 1383.61 404.86 1388.23C404.86 1388.23 404.74 1383.92 397.76 1385.38C395.28 1385.89 392.76 1386.04 390.25 1385.82C386.85 1385.54 383.62 1383.94 381.05 1381.27C381.05 1381.27 381.05 1381.27 381.05 1381.27C381.05 1381.27 361.59 1371.66 354.03 1333.57C354.03 1333.57 348.43 1325.27 348.66 1323.13C349.82 1323.72 359.16 1328.5 360.33 1329.1C360.33 1329.1 356.34 1339.2 359.48 1347.58C359.48 1347.58 359.86 1329.48 362.11 1329.89C362.55 1329.98 368.17 1333.33 368.17 1333.33C368.17 1333.33 361.3 1350.89 366.48 1363.67C366.48 1363.67 364.52 1342.02 370.31 1334.6C371.13 1335.17 377.72 1339.77 378.54 1340.35C378.54 1340.35 370.51 1358.5 375.96 1373.3C375.96 1373.3 374.53 1350.58 380.26 1341.74C381.01 1342.43 386.98 1347.92 387.72 1348.61C387.72 1348.61 380.18 1366.5 384.78 1378.8C384.78 1378.8 385.37 1352.34 389.33 1350.34C389.33 1350.34 395.85 1357.21 396.84 1360.06C396.84 1360.06 391.68 1373.05 394.88 1379.9C394.88 1379.9 396.84 1362.28 398.46 1362.19C398.46 1362.19 404.95 1373.87 405.63 1381.87C405.63 1381.87 405.35 1369.97 400.03 1361.08C400.03 1361.08 406.31 1362.36 409.98 1367.24C409.98 1367.24 408.96 1358.98 398.43 1358.26C398.43 1358.26 393.07 1349.42 391.62 1348.87C391.62 1348.87 402.11 1347.82 408.46 1351.2C408.46 1351.2 402.87 1343.41 389.7 1346.94C388.96 1346.23 383.08 1340.48 382.34 1339.77C382.34 1339.77 396.15 1337.5 401.99 1340.01C401.99 1340.01 395.26 1333.14 380.36 1338.13C379.56 1337.56 373.16 1332.97 372.36 1332.4C372.36 1332.4 384.12 1329.36 391.13 1330.46C391.13 1330.46 383.73 1325.68 370.01 1330.85C369.44 1330.55 364.85 1328.09 364.27 1327.78C364.27 1327.78 372.88 1325.75 375.42 1325.43C375.42 1325.43 378.07 1324.28 378.07 1324.28C372.61 1323.18 367.01 1323.92 361.88 1326.42C361.88 1326.42 349.75 1321.22 349.96 1320.22C362.17 1330.84 419.17 1315.23 411.01 1373.3Z" id="g4Y5hTVvF"></path><path d="M446.62 1393.29C446.62 1398.76 424.69 1403.2 397.63 1403.2C370.57 1403.2 348.64 1398.76 348.64 1393.29C348.64 1387.82 370.57 1383.38 397.63 1383.38C424.69 1383.38 446.62 1387.82 446.62 1393.29Z" id="cpO9wKSTI"></path><path d="M291.66 1311.09C292.16 1314.49 290.77 1317.9 288.21 1319.5C288.21 1319.5 288.14 1317.08 284.21 1317.91C282.81 1318.19 281.39 1318.27 279.98 1318.15C278.06 1318 276.23 1317.1 274.78 1315.59C274.78 1315.59 274.78 1315.59 274.78 1315.59C274.78 1315.59 263.83 1310.14 259.53 1288.68C259.53 1288.68 256.37 1283.99 256.48 1282.79C257.14 1283.13 262.42 1285.88 263.08 1286.22C263.08 1286.22 260.83 1291.92 262.59 1296.65C262.59 1296.65 262.81 1286.43 264.03 1286.67C264.29 1286.67 267.46 1288.64 267.46 1288.64C267.46 1288.64 263.58 1298.55 266.51 1305.82C266.51 1305.82 265.39 1293.61 268.66 1289.42C269.12 1289.74 272.83 1292.34 273.29 1292.66C273.29 1292.66 268.78 1302.97 271.86 1311.24C271.86 1311.24 271.07 1298.43 274.28 1293.45C274.7 1293.84 278.06 1296.98 278.48 1297.37C278.48 1297.37 274.18 1307.45 276.83 1314.39C276.83 1314.39 277.16 1299.46 279.4 1298.35C279.4 1298.35 283.07 1302.23 283.63 1303.82C283.63 1303.82 280.76 1311.14 282.53 1315C282.53 1315 283.63 1305.08 284.55 1305.03C284.55 1305.03 288.21 1311.6 288.58 1316.12C288.4 1311.95 287.31 1307.91 285.43 1304.39C287.54 1304.85 289.49 1306.05 291.03 1307.83C291.03 1307.83 290.47 1303.17 284.52 1302.76C284.52 1302.76 281.5 1297.76 280.69 1297.47C280.69 1297.47 286.6 1296.87 290.19 1298.78C290.19 1298.78 287.03 1294.38 279.6 1296.37C279.19 1295.97 275.87 1292.72 275.46 1292.32C275.46 1292.32 283.25 1291.05 286.54 1292.46C286.54 1292.46 282.74 1288.58 274.34 1291.41C273.89 1291.08 270.29 1288.49 269.84 1288.16C273.31 1287.26 276.86 1286.89 280.41 1287.08C280.41 1287.08 276.25 1284.39 268.5 1287.3C268.18 1287.13 265.6 1285.76 265.28 1285.59C265.28 1285.59 270.14 1284.44 271.56 1284.27C271.56 1284.27 273.06 1283.61 273.06 1283.61C269.98 1283 266.82 1283.42 263.93 1284.83C263.93 1284.83 257.13 1281.72 257.24 1281.16C264.13 1287.14 296.27 1278.34 291.66 1311.09Z" id="c13ehpJ501"></path><path d="M311.74 1322.34C311.74 1325.43 299.38 1327.93 284.12 1327.93C268.87 1327.93 256.5 1325.43 256.5 1322.34C256.5 1319.24 268.87 1316.74 284.12 1316.74C299.38 1316.74 311.74 1319.24 311.74 1322.34Z" id="a20sOjXG1J"></path><path d="M1258.85 1348.7C1259.43 1352.81 1257.74 1356.91 1254.66 1358.86C1254.66 1358.86 1254.58 1355.93 1249.83 1356.92C1248.14 1357.27 1246.42 1357.36 1244.71 1357.21C1242.4 1357.03 1240.2 1355.95 1238.46 1354.12C1238.46 1354.12 1238.46 1354.12 1238.46 1354.12C1238.46 1354.12 1225.21 1347.58 1220.06 1321.65C1220.06 1321.65 1216.24 1316 1216.4 1314.56C1217.2 1314.96 1223.55 1318.2 1224.35 1318.61C1224.35 1318.61 1221.64 1325.48 1223.77 1331.2C1223.77 1331.2 1224.03 1318.87 1225.55 1319.18C1225.87 1319.18 1229.68 1321.55 1229.68 1321.55C1229.68 1321.55 1225.01 1333.57 1228.53 1342.15C1228.53 1342.15 1227.2 1327.42 1231.14 1322.37C1231.7 1322.76 1236.18 1325.88 1236.74 1326.27C1236.74 1326.27 1231.27 1338.63 1234.99 1348.71C1234.99 1348.71 1234.03 1333.26 1237.86 1327.23C1238.36 1327.7 1242.42 1331.5 1242.93 1331.97C1242.93 1331.97 1237.8 1344.15 1240.92 1352.58C1240.92 1352.58 1241.34 1334.58 1244.04 1333.21C1244.04 1333.21 1248.47 1337.89 1249.14 1339.82C1249.14 1339.82 1245.63 1348.66 1247.81 1353.33C1247.81 1353.33 1249.14 1341.31 1250.25 1341.31C1250.25 1341.31 1254.66 1349.26 1255.12 1354.71C1254.91 1349.67 1253.6 1344.79 1251.32 1340.56C1253.87 1341.13 1256.22 1342.59 1258.09 1344.75C1258.09 1344.75 1257.4 1339.13 1250.22 1338.63C1250.22 1338.63 1246.58 1332.61 1245.6 1332.24C1245.6 1332.24 1252.77 1331.52 1257.07 1333.82C1257.07 1333.82 1253.26 1328.54 1244.29 1330.94C1243.79 1330.45 1239.79 1326.53 1239.29 1326.05C1239.29 1326.05 1248.68 1324.5 1252.67 1326.2C1252.67 1326.2 1248.08 1321.51 1237.94 1324.93C1237.4 1324.54 1233.04 1321.42 1232.49 1321.03C1232.49 1321.03 1240.49 1318.97 1245.27 1319.71C1245.27 1319.71 1240.24 1316.46 1230.93 1319.98C1230.54 1319.77 1227.42 1318.1 1227.03 1317.89C1227.03 1317.89 1232.89 1316.5 1234.61 1316.29C1234.61 1316.29 1236.42 1315.5 1236.42 1315.5C1232.71 1314.76 1228.9 1315.27 1225.41 1316.96C1225.41 1316.96 1217.12 1313.29 1217.26 1312.63C1217.26 1312.63 1264.37 1309.2 1258.85 1348.7Z" id="c1FM2pZzAE"></path><path d="M1283.04 1362.38C1283.04 1366.11 1268.12 1369.13 1249.7 1369.13C1231.29 1369.13 1216.36 1366.11 1216.36 1362.38C1216.36 1358.65 1231.29 1355.63 1249.7 1355.63C1268.12 1355.63 1283.04 1358.65 1283.04 1362.38Z" id="cwe7I3Ns"></path><path d="M1168.76 877.44C1168.76 870.07 1160.4 863.54 1160.4 863.54C1160.4 863.54 1155.24 849.24 1151.79 847.13C1148.35 845.01 1137.73 826.3 1137.73 826.3C1137.6 822.6 1136.48 819.06 1134.53 816.2C1131.34 811.19 1128.44 805.93 1125.82 800.47C1124.39 798.37 1125.1 796.9 1122.95 784.69C1122.84 784.05 1122.71 783.44 1122.55 782.85C1122.55 782.58 1122.41 782.34 1122.32 782.06C1126.98 776.47 1128.56 768.17 1126.38 760.72C1125.99 759.26 1125.29 757.96 1124.34 756.94C1121.92 754.57 1118.05 755.55 1115.55 753.3C1115.82 751.89 1117.94 740.66 1118.21 739.25C1118.84 735.82 1119.17 731.47 1116.66 729.62C1115.72 729.08 1114.72 728.68 1113.7 728.43C1109.4 726.71 1106.91 721.27 1105.79 716.03C1104.71 710.99 1104.42 705.75 1104.93 700.58C1105.41 695.6 1106.63 690.76 1107.08 685.76C1107.89 676.52 1106.03 667.22 1101.81 659.42C1100.18 656.05 1097.76 653.32 1094.86 651.55C1092.21 650.13 1089.12 649.83 1086.64 648.12C1081.31 644.05 1081.58 634.38 1077.32 628.83C1073.06 623.29 1065.52 623.3 1059.31 625.21C1053.1 627.12 1046.92 630.36 1040.55 629.55C1036.45 629 1032.6 626.77 1028.49 626.26C1027.31 626.12 1026.12 626.19 1024.96 626.45C1024.96 626.43 1024.96 626.31 1024.96 626.29C1021.92 626.94 1019.12 628.97 1018.41 632.42C1018.25 633.24 1018.18 634.09 1018.21 634.93C1018.21 636.94 1018.61 639.03 1018.64 640.96C1018.74 642.5 1018.32 644.03 1017.47 645.2C1016.66 646.25 1015.45 646.8 1014.61 647.88C1013.91 648.71 1013.53 649.86 1013.56 651.04C1013.56 654.09 1016.74 656.79 1018.88 658.03C1018.89 658.03 1018.96 658.03 1018.97 658.03C1018.39 658.71 1017.82 659.43 1017.29 660.17C1011.16 668.46 1007.78 679.14 1007.79 690.21C1007.9 708.47 1017.05 724.92 1031.08 732.07C1031.05 732.18 1030.81 733.08 1030.78 733.19C1030.18 735.4 1029.47 737.56 1028.67 739.68C1025.67 738.47 1022.38 738.91 1019.67 740.88C1015.57 744.32 1007.55 744.04 1005.41 743.41C1003.28 742.77 981.03 739.41 979.24 740.25C977.45 741.09 973.91 737.31 971.6 742.36C969.29 747.41 968.21 750.14 965.86 751.41C963.51 752.68 959.45 756.66 959.99 757.5C960.54 758.35 954.11 763.39 954.11 763.39C954.11 763.39 948.59 770.26 945.39 771.17C942.2 772.08 935.43 777.29 935.43 777.29C934.64 778.02 928.37 783.9 927.58 784.64C927.58 784.64 921.72 785.7 923.5 780.86C923.5 780.86 920.28 769.92 920.28 769.92C920.28 769.92 910.32 745.72 910.32 740.73C910.32 740.73 902.13 714.42 902.13 714.42C902.06 714.41 901.73 714.37 901.12 714.3C900.85 713.36 900.7 712.84 900.66 712.74C899.16 707.67 897.21 701.45 895.72 697.81C892.85 690.86 891.08 690.14 891.08 690.14C891.08 690.14 856.55 659.09 834.12 668.55C811.69 678.01 875.07 706.21 880.76 709.16C882.75 710.2 884.19 713.53 885.19 717.42C880.14 720.34 875.88 724.92 872.93 730.63C872.93 730.63 886.64 767.02 887 776.07C887 776.07 896.43 810.41 896.43 810.41C896.43 810.41 899.82 829.15 918.15 828.08C918.15 828.08 943.43 833.65 948.95 828.08C954.47 822.52 959.45 818.16 962.13 817.52C964.1 816.75 965.84 815.28 967.11 813.31C967.11 813.31 958.75 876.42 954.64 881.9C950.54 887.38 914.3 958.23 927.31 970.91C937.61 980.46 948.5 989.07 959.88 996.66C960.98 997.32 964.3 990.7 969.03 986.02C969.03 987.2 969.03 988.4 969.03 989.67C969.12 1014.88 971.9 1053.21 975.74 1061.8C981.48 1074.42 979.13 1098.82 979.13 1098.82C982.14 1100.52 985.42 1101.46 988.75 1101.59C988.92 1102.41 989.12 1103.3 989.31 1104.16C992.45 1118.36 997.54 1140.33 1000.14 1146.17C1004.05 1155.01 1006.89 1183 1006.89 1183C1006.89 1183 1009.21 1210.48 1008.32 1214.34C1007.98 1215.8 1009.49 1227.24 1011.85 1241.82C1011.85 1241.82 1011.85 1241.82 1011.85 1241.82C1010.42 1261.55 1007.69 1299.58 1007.23 1313.34C1007.23 1313.34 1007.23 1313.34 1007.23 1313.34C1007.23 1313.6 1007.23 1313.85 1007.23 1314.09C1007.23 1314.12 1007.23 1314.31 1007.23 1314.33C1007.24 1314.49 1007.24 1314.64 1007.23 1314.8C1007.23 1315.11 1007.23 1315.38 1007.23 1315.64C1007.23 1315.64 1007.23 1315.64 1007.23 1315.64C1007.19 1316.5 1007.22 1317.37 1007.32 1318.23C1007.5 1319.54 1007.41 1320.88 1007.08 1322.15C1006.06 1325.95 1004.77 1329.64 1003.22 1333.17C1002.56 1334.91 1001.99 1336.68 1001.5 1338.5C1000.06 1339.25 998.31 1341.09 997.34 1345.57C995.56 1353.78 992.89 1376.48 992.89 1376.48C992.89 1376.48 991.82 1390.37 989.69 1393.53C987.57 1396.69 985.39 1416.46 1000.55 1418.98C1015.71 1421.51 1022.26 1409.37 1022.26 1409.37C1022.23 1405.69 1022.05 1387.33 1021.73 1354.28C1021.73 1354.21 1021.73 1354.18 1021.73 1354.17C1022.04 1353.71 1022.3 1353.21 1022.52 1352.68C1022.52 1352.67 1022.52 1352.56 1022.52 1352.54C1022.62 1352.28 1022.74 1352.01 1022.84 1351.7C1022.85 1351.67 1022.89 1351.54 1022.97 1351.29C1023.1 1350.89 1023.18 1350.66 1023.2 1350.62C1023.19 1350.54 1023.19 1350.46 1023.2 1350.38C1024.67 1345.1 1025.11 1339.49 1024.49 1333.98C1024.49 1333.96 1024.49 1333.87 1024.49 1333.7C1024.49 1333.45 1024.49 1333.3 1024.49 1333.28C1024.49 1333.14 1024.49 1332.98 1024.49 1332.85C1024.49 1332.76 1024.49 1332.07 1024.49 1331.99C1024.49 1331.88 1024.49 1331.76 1024.49 1331.66C1024.49 1331.11 1024.56 1330.64 1024.57 1330.53C1024.66 1329.94 1024.57 1330.39 1024.57 1330.32C1024.58 1330.28 1024.61 1330.05 1024.66 1329.65C1024.66 1329.48 1024.66 1329.38 1024.66 1329.36C1024.66 1329.14 1024.66 1328.91 1024.77 1328.67C1024.77 1328.62 1024.77 1328.56 1024.77 1328.5C1024.92 1327.71 1025.09 1326.78 1025.28 1326.03C1025.28 1326.02 1025.28 1325.95 1025.28 1325.84L1025.49 1325.02C1025.49 1325.02 1025.49 1325.02 1025.49 1325.02C1025.71 1324.14 1025.95 1323.3 1026.21 1322.37C1026.21 1322.35 1026.21 1322.22 1026.21 1322.2C1026.21 1321.92 1026.37 1321.65 1026.45 1321.39C1026.45 1321.38 1026.45 1321.3 1026.45 1321.29C1026.71 1320.45 1026.98 1319.57 1027.24 1318.85C1027.24 1318.84 1027.27 1318.76 1027.31 1318.63L1027.54 1317.94L1027.61 1317.73L1028.16 1316.21L1028.16 1316.21C1030.68 1325.53 1032.08 1330.71 1032.36 1331.75C1032.36 1331.75 1034.68 1343.32 1033.44 1346.05C1033.44 1346.05 1034.87 1360.15 1036.63 1360.36C1036.47 1361.79 1035.15 1373.23 1034.98 1374.66C1034.09 1382.55 1033.56 1390.49 1033.39 1398.44C1033.28 1399.35 1033.16 1400.16 1033.08 1400.71C1031.93 1408.04 1034.68 1419.41 1034.68 1419.41C1048.74 1439.31 1065.49 1420.96 1065.49 1420.96C1065.49 1420.96 1067.44 1410.43 1065.49 1408.34C1063.54 1406.24 1064.41 1398.65 1064.41 1398.65C1064.41 1398.65 1065.3 1379.92 1065.47 1366.25C1065.65 1352.58 1056.14 1340.49 1056.14 1340.49C1056.08 1340.54 1055.66 1341 1055.61 1341.05C1053.87 1335.7 1051.89 1329.45 1052.31 1326.65C1053.03 1321.8 1050.34 1270.68 1050.34 1270.68C1051.33 1256.98 1051.55 1243.21 1050.97 1229.47C1050.97 1229.47 1050.97 1229.47 1050.97 1229.47C1051.2 1227.15 1051.42 1224.87 1051.63 1222.6C1052.71 1211.61 1053.59 1202.22 1053.93 1197.29C1053.93 1197.29 1053.93 1197.29 1053.93 1197.29C1053.93 1196.94 1053.93 1196.74 1053.93 1196.7C1054.02 1195.38 1054.06 1194.44 1054.04 1193.99C1054.04 1192.27 1054.04 1190.32 1054.19 1188.17C1054.52 1182.26 1055.29 1175.68 1055.29 1175.68C1055.66 1172.97 1058.65 1151.25 1059.02 1148.54C1059.02 1148.54 1061.89 1135.28 1065.98 1127.93C1066.01 1127.87 1066.17 1127.56 1066.46 1127C1066.46 1127 1066.46 1127 1066.46 1127C1066.62 1126.68 1066.78 1126.31 1066.95 1125.94C1066.96 1125.92 1067.02 1125.8 1067.02 1125.78C1067.18 1125.42 1067.35 1125.04 1067.51 1124.65C1067.52 1124.63 1067.57 1124.51 1067.58 1124.49C1068.16 1123.14 1068.77 1121.57 1069.42 1119.86C1069.42 1119.72 1069.52 1119.6 1069.56 1119.46C1069.61 1119.33 1070 1118.29 1070.05 1118.16C1070.05 1117.99 1070.16 1117.81 1070.24 1117.64C1070.31 1117.47 1070.54 1116.77 1070.69 1116.34C1070.76 1116.16 1070.83 1115.99 1070.88 1115.81C1071.07 1115.29 1071.27 1114.76 1071.45 1114.21C1071.48 1114.13 1071.7 1113.5 1071.73 1113.42C1071.86 1113.02 1072 1112.63 1072.14 1112.23C1072.18 1112.13 1072.45 1111.29 1072.49 1111.19C1072.59 1110.93 1072.67 1110.67 1072.76 1110.41C1072.8 1110.29 1073.11 1109.35 1073.15 1109.23C1073.15 1109.06 1073.28 1108.87 1073.33 1108.7C1074.35 1105.66 1075.33 1102.65 1076.2 1099.92C1076.2 1099.92 1076.2 1099.92 1076.2 1099.92C1076.47 1099.06 1076.75 1098.2 1076.99 1097.45C1086.11 1098.12 1092.31 1098.72 1092.31 1098.72C1092.31 1098.72 1095.17 1074.11 1094.26 1057.92C1093.65 1046.86 1095.38 1032.95 1096.51 1025.29C1096.64 1024.45 1096.75 1023.69 1096.87 1023.01C1096.89 1023.03 1097.09 1023.22 1097.11 1023.25C1101.57 1027.45 1104.77 1013.56 1104.77 1013.56C1104.77 1013.56 1103.56 1000.6 1101.9 984.88C1101.88 984.73 1101.75 983.48 1101.73 983.32C1104.3 983.98 1106.9 984.45 1109.52 984.75C1109.52 984.75 1110.95 984.59 1112.91 984.3C1118.35 988.07 1124.09 991.17 1130.04 993.57C1130.99 991.48 1138.57 974.72 1139.52 972.62C1141.3 968.28 1143.39 964.13 1145.76 960.21C1148.62 956 1158.75 942.54 1158.58 940.01C1158.41 937.49 1161.96 922.96 1165.52 916.43C1169.08 909.91 1170.49 896.79 1170.32 895.74C1169.42 889.7 1168.9 883.58 1168.76 877.44ZM1123.33 927.3C1123.15 930.46 1119.22 944.34 1115.14 946.02C1111.37 947.57 1104.17 955.5 1103.02 956.77C1101.84 956.89 1100.51 957.08 1099.12 957.36C1097.56 944.08 1096.01 933.09 1095.02 930.88C1092.15 924.56 1098.16 904.36 1098.16 904.36C1098.16 904.36 1098.75 883.96 1102.46 879.12C1106.17 874.28 1105.33 862.07 1105.33 862.07C1105.33 862.07 1106.22 857.02 1106.58 854.72C1106.93 852.42 1111.87 854.72 1111.91 854.72C1111.91 854.72 1111.91 854.72 1111.91 854.72C1111.91 854.72 1121.52 861.02 1122.95 870.48C1122.95 870.48 1134.89 896.36 1134.89 896.36C1134.89 896.36 1133.28 902.04 1134.89 904.95C1136.49 907.85 1134.54 909.84 1130.8 911.73C1127.06 913.62 1123.5 924.14 1123.33 927.3Z" id="b12b6r92do"></path><linearGradient id="gradienta1M0AVK2T" gradientUnits="userSpaceOnUse" x1="999.88" y1="1428.82" x2="999.88" y2="623.87"><stop style="stop-color: #808080;stop-opacity: 0.25" offset="0%"></stop><stop style="stop-color: #808080;stop-opacity: 0.12" offset="54%"></stop><stop style="stop-color: #808080;stop-opacity: 0.1" offset="100%"></stop></linearGradient><path d="M873.33 731.92C879.31 720.11 890.61 713.74 902.01 715.74C902.01 717.38 902.01 725.57 902.01 740.32L889.55 740.32L879.8 737.36C876.35 734.46 874.19 732.64 873.33 731.92Z" id="b1mj5LQdlu"></path><path d="M873.33 731.92C879.31 720.11 890.61 713.74 902.01 715.74C902.01 717.38 902.01 725.57 902.01 740.32L889.55 740.32L879.8 737.36C876.35 734.46 874.19 732.64 873.33 731.92Z" id="b1Z8C0uBzX"></path><path d="M887.67 735.06C887.67 735.06 887.54 732.5 887.15 729C886.39 722.37 884.69 712.43 881 710.5C875.4 707.55 812.97 679.42 835.11 669.96C857.25 660.5 891.23 691.51 891.23 691.51C891.23 691.51 892.98 692.23 895.77 699.15C897.21 702.79 899.17 708.99 900.65 714.06C902.01 718.63 902.94 722.25 902.94 722.25C899.89 724.81 889.2 733.78 887.67 735.06Z" id="b1HevSgFiV"></path><path d="M1026.7 741L1031.57 747.67L1027.58 757.85L1020.79 754.59L1022.36 746.45L1024.96 741.98L1024.96 741.98L1026.7 741Z" id="cJH3mUybP"></path><path d="M1001.86 1338.39C1001.86 1338.39 997.47 1337.77 995.72 1345.97C995.72 1345.97 991.33 1376.88 991.33 1376.88C991.33 1376.88 990.28 1390.73 988.17 1393.89C988.17 1393.89 983.97 1416.78 998.87 1419.29C998.87 1419.29 1020.27 1409.69 1020.27 1409.69C1020.23 1406.02 1020.06 1387.66 1019.74 1354.62C1010.2 1345.97 1004.24 1340.56 1001.86 1338.39Z" id="aayPknpE"></path><path d="M1053.86 1340.87C1053.86 1340.87 1063.24 1352.89 1063.06 1366.52C1063.06 1366.52 1062 1398.86 1062 1398.86C1062 1398.86 1061.14 1406.43 1063.06 1408.52C1063.06 1408.52 1063.06 1421.13 1063.06 1421.13C1063.06 1421.13 1046.57 1439.45 1032.72 1419.58C1032.72 1419.58 1030.02 1408.23 1031.14 1400.92C1032.26 1393.6 1035.39 1360.72 1035.39 1360.72C1039.08 1356.75 1050.16 1344.84 1053.86 1340.87Z" id="a1W9ImSO5d"></path><path d="M1077.09 1089.75C1077.09 1089.75 1067.63 1121.45 1063.58 1128.8C1063.58 1128.8 1056.75 1149.41 1056.75 1149.41C1056.39 1152.12 1053.44 1173.78 1053.07 1176.49C1052.35 1182.55 1051.94 1188.65 1051.84 1194.76C1052.01 1200.86 1042.71 1289.67 1042.71 1289.67C1041.24 1291.92 1029.46 1309.91 1027.99 1312.15C1027.99 1312.15 1021.5 1327.9 1022.55 1334.48C1022.55 1334.48 1021.85 1351.49 1019.68 1354.64C1019.68 1354.64 1019.34 1375.24 1018.81 1379.83C1018.28 1384.41 1020.74 1397.48 1018.81 1399.78C1016.87 1402.08 991.1 1401.05 990.4 1397.26C989.69 1393.46 993.55 1375.21 993.55 1375.21C993.78 1373.45 995.6 1359.34 995.83 1357.57C995.83 1357.57 1000.39 1347.92 999.35 1344.76C999.35 1344.76 1001.27 1334.27 1001.44 1333.64C1001.44 1333.64 1006.36 1322.71 1005.48 1318.73C1004.61 1314.75 1011.01 1230.02 1011.01 1230.02C1012.21 1219.9 1018.23 1169.29 1029.06 1078.2C1054.68 1084.36 1070.69 1088.21 1077.09 1089.75Z" id="a1oTSolg1L"></path><path d="M1077.09 1089.75C1077.09 1089.75 1075.66 1094.53 1073.69 1100.8C1070.57 1110.69 1066.06 1124.31 1063.58 1128.8C1059.55 1136.15 1056.74 1149.41 1056.74 1149.41C1056.37 1152.12 1053.42 1173.8 1053.05 1176.51C1052.34 1182.56 1051.93 1188.67 1051.84 1194.78C1051.84 1197.18 1050.49 1212.52 1048.77 1230.19C1046.11 1257.2 1042.71 1289.69 1042.71 1289.69C1041.24 1291.94 1029.46 1309.92 1027.99 1312.17C1027.99 1312.17 1027.24 1313.89 1026.31 1316.6C1024.46 1321.75 1021.85 1330.12 1022.55 1334.43C1023.6 1340.93 1021.85 1351.43 1019.68 1354.59C1019.68 1354.59 1019.32 1375.19 1018.81 1379.78C1018.29 1384.36 1020.74 1397.41 1018.81 1399.73C1016.87 1402.05 991.1 1401 990.4 1397.22C989.69 1393.45 993.55 1375.18 993.55 1375.18C993.78 1373.41 995.6 1359.29 995.83 1357.52C995.83 1357.52 1000.39 1347.87 999.33 1344.71C999.33 1344.71 1001.27 1334.22 1001.44 1333.58C1001.44 1333.58 1006.36 1322.66 1005.48 1318.68C1004.81 1315.64 1008.35 1265.89 1010 1242.3C1010.56 1234.88 1010.92 1230.05 1010.92 1230.05C1011.96 1221.34 1017.13 1177.81 1026.45 1099.44L1027.71 1088.91L1028.98 1078.23C1054.64 1084.38 1070.68 1088.22 1077.09 1089.75Z" id="d2otOMOYxW"></path><path d="M1033.02 1408.73C1029.46 1406.21 1033.02 1374.92 1033.02 1374.92C1033.18 1373.49 1034.48 1362.07 1034.64 1360.65C1032.9 1360.42 1030.27 1349.09 1031.49 1346.36C1032.7 1343.63 1030.44 1332.09 1030.44 1332.09C1030.16 1331.06 1028.79 1325.91 1026.31 1316.64C1024.79 1310.96 1023.95 1307.8 1023.78 1307.17C1019.68 1296.34 1013.75 1265.43 1010.06 1242.35C1007.74 1227.85 1006.26 1216.43 1006.59 1214.98C1007.46 1211.2 1005.15 1183.69 1005.15 1183.69C1005.15 1183.69 1002.29 1155.75 998.5 1146.94C995.93 1141.1 990.93 1119.17 987.83 1105.02C986.25 1097.76 985.16 1092.54 985.16 1092.54C985.16 1092.54 1011.67 1089.87 1027.74 1088.95C1035.13 1088.52 1040.32 1088.47 1039.72 1089.19C1039.11 1089.91 1038.96 1093.76 1038.99 1099.32C1039.06 1113.73 1040.74 1139.07 1042.51 1145.89C1044.97 1155.34 1047.42 1183.67 1046.37 1186.42C1045.32 1189.17 1045.67 1207.42 1045.67 1207.42C1047.48 1214.83 1048.52 1222.49 1048.77 1230.21C1049.33 1243.88 1049.13 1257.59 1048.16 1271.23C1048.16 1271.23 1050.79 1322.27 1050.09 1327.09C1050.09 1327.09 1055.69 1347.05 1055.69 1349.98C1055.69 1349.98 1057.44 1372.87 1057.44 1372.87C1057.44 1372.87 1061.2 1403.27 1061.31 1405.57C1061.47 1407.89 1036.58 1411.25 1033.02 1408.73Z" id="dwjNSMYz3"></path><path d="M1075.15 792.18L1072.14 796.07L1070.18 798.62L1058.7 813.38L1029.06 817.38L1013.29 812.34C1010.95 811.58 1009.65 811.17 1009.39 811.08C1009.39 811.08 1009.39 801.6 1010.09 790.24C1011.09 775.66 1013.49 757.95 1019.21 753.13C1022.07 750.44 1024.36 746.97 1025.88 743.01C1027.02 740.28 1027.98 737.44 1028.75 734.53C1028.86 734.15 1028.95 733.79 1029.05 733.41C1030.34 728.32 1031.27 723.11 1031.83 717.84C1031.83 717.84 1035.62 715.33 1040.88 712.41C1054.6 704.73 1078.31 694.14 1070.06 717.84C1068.85 721.31 1067.82 724.86 1066.97 728.48C1066.84 729.02 1066.72 729.55 1066.62 730.06C1063.87 743.25 1065.69 751.25 1067.74 755.67C1067.74 755.67 1067.74 755.67 1067.74 755.67C1068.09 756.43 1068.48 757.16 1068.93 757.85C1069.49 758.77 1070.16 759.59 1070.92 760.27C1071.15 762 1072.29 770.65 1074.34 786.22L1074.62 788.36L1075.15 792.18Z" id="e2MSi9Jal"></path><path d="M1070.08 719.11C1063.82 724.43 1049.1 739.59 1040.82 739.59C1035.23 739.59 1033.55 738.37 1028.76 735.78C1030.21 730.35 1031.24 724.77 1031.84 719.11C1031.84 719.11 1081.48 686.34 1070.08 719.11C1068.51 723.61 1070.84 715.43 1070.08 719.11Z" id="g5nhggQVF"></path><path d="M1048.48 737.04C1047.16 737.19 1045.83 737.29 1044.48 737.29C1023.36 737.29 1006.24 716.8 1006.24 691.51C1006.24 666.23 1023.36 645.73 1044.48 645.73C1065.59 645.73 1082.71 666.23 1082.71 691.51C1082.71 691.51 1082.71 691.51 1082.71 691.51C1082.7 714.93 1067.93 734.57 1048.48 737.04Z" id="atDHiLPm5"></path><path d="M1088.15 894.45C1084.88 904.66 1083.06 910.34 1082.7 911.47C1082.7 911.47 1078.27 911.69 1071.35 911.95C1048.02 912.85 996.61 913.98 994.31 906.8C993.8 904.98 993.53 903.07 993.51 901.15C993.21 890.21 997.47 873.42 997.47 873.42C997.47 873.42 999.92 839.81 999.92 838.35C999.92 836.89 997.81 813.35 997.81 813.35C998.09 812.09 999.5 805.79 1002.03 794.46C1009.08 788.54 1012.99 785.24 1013.77 784.59C1013.77 784.59 1019.04 794.25 1022.19 795.08C1022.19 795.08 1029.56 800.56 1029.56 800.56C1029.56 800.56 1039.9 808.11 1043.24 803.9C1043.24 803.9 1072.53 781.22 1072.53 781.22C1073.44 782.42 1078 788.45 1086.21 799.29L1088.15 894.45Z" id="ceg4L9x4n"></path><path d="M1088.15 897.06C1084.88 907.26 1083.06 912.93 1082.7 914.06C1082.7 914.06 1078.27 914.31 1071.35 914.56C1071.29 914.56 1070.75 914.56 1070.68 914.56C1067.7 914.68 1064.28 914.8 1060.64 914.89C1042.1 915.4 1016.56 915.54 1003.2 913.17C998.18 912.31 994.9 911.08 994.36 909.39C994.05 908.38 993.84 907.33 993.72 906.27C993.64 905.48 993.58 904.55 993.55 903.74C993.25 892.81 997.51 876.01 997.51 876.01C997.51 876.01 999.96 842.4 999.96 840.95C999.96 839.49 997.85 815.94 997.85 815.94C998.14 814.68 999.54 808.39 1002.07 797.05L1010.15 790.29C1012.35 788.43 1013.57 787.4 1013.82 787.2C1015.05 789.41 1016.4 791.53 1017.85 793.55C1018.98 795.37 1020.49 796.8 1022.24 797.69C1025.4 798.53 1029.61 803.17 1029.61 803.17C1029.61 803.17 1039.95 810.72 1043.29 806.51C1045.83 803.3 1061.6 791.75 1068.89 786.47C1071.12 784.84 1072.57 783.83 1072.57 783.83C1072.7 783.99 1073.31 784.81 1074.41 786.27L1086.25 801.9L1088.15 897.06Z" id="dBesRBRO6"></path><path d="M887.67 735.06C887.67 735.06 887.54 732.5 887.15 729C894.7 725.19 899.29 716.75 900.61 714.06C902.01 718.63 902.94 722.25 902.94 722.25C899.89 724.81 889.2 733.78 887.67 735.06Z" id="a9FpuDPHv"></path><path d="M956.61 765.73C954.61 765.09 953.5 764.74 953.28 764.67C953.28 764.67 947.83 771.53 944.68 772.44C944.68 772.44 934.87 778.52 934.87 778.52C934.1 779.26 927.91 785.14 927.14 785.87C927.14 785.87 921.4 786.94 923.11 782.1C923.11 782.1 919.95 771.17 919.95 771.17C919.95 771.17 910.13 747.03 910.13 741.98C910.13 736.93 902.01 715.74 902.01 715.74C902.01 715.74 891.83 739.47 873.24 731.92C873.24 731.92 886.75 768.24 887.1 777.27C887.44 786.3 896.39 811.49 896.39 811.49C896.39 811.49 899.73 830.2 917.79 829.15C917.79 829.15 942.7 834.69 948.13 829.15C953.57 823.6 958.47 819.24 961.04 818.6C963.61 817.97 965.95 814.41 965.95 814.41C965.95 812.75 965.95 804.43 965.95 789.45L956.61 765.73Z" id="h1WC78lCzr"></path><path d="M925.39 789.45C925.39 789.45 929.78 808.99 926.97 811.08C926.97 811.08 925.39 789.45 925.39 789.45Z" id="aJI8irKMe"></path><path d="M1071.35 914.48C1048.02 915.37 996.61 916.49 994.31 909.33C993.8 907.5 993.53 905.6 993.51 903.68C998.59 904 1024 905.6 1069.73 908.48C1070.6 911.68 1071.14 913.68 1071.35 914.48Z" id="aYR41z60R"></path><path d="M1077.09 1089.75C1077.09 1089.75 1075.66 1094.53 1073.69 1100.8C1064.01 1100.09 1051.19 1099.35 1039.01 1099.25C1034.71 1099.25 1030.5 1099.25 1026.51 1099.42C1018.05 1099.73 1010.73 1100.56 1006.07 1102.14C1000.18 1104.31 994.02 1105.26 987.86 1104.95C986.28 1097.69 985.19 1092.47 985.19 1092.47C985.19 1092.47 1011.69 1089.81 1027.77 1088.88C1027.85 1088.17 1028.28 1084.61 1029.03 1078.2C1054.66 1084.36 1070.68 1088.21 1077.09 1089.75Z" id="gpUvy39QQ"></path><path d="M1097.61 1012.89C1095.82 1017.42 1094.83 1019.94 1094.63 1020.45C1094.63 1020.45 1094.21 1022.7 1093.68 1026.27C1092.56 1033.96 1090.81 1047.84 1091.47 1058.9C1092.35 1075.07 1089.54 1099.63 1089.54 1099.63C1089.54 1099.63 1025 1093.12 1006.07 1099.63C987.14 1106.14 977.82 1099.63 977.82 1099.63C977.82 1099.63 980.11 1075.28 974.49 1062.67C970.66 1054.09 967.97 1015.76 967.88 990.55C967.88 978.92 968.37 970.12 969.59 968.33C973.45 962.66 989.92 905.96 989.92 905.96C990.17 905.98 991.43 906.06 993.68 906.2L1003.72 906.84L1060.8 910.44L1069.76 911.01L1070.71 914.44L1097.61 1012.89Z" id="c6NSMZSMK"></path><path d="M1126.02 987.68C1126.34 991.72 1126.52 993.97 1126.55 994.41C1126.55 994.41 1098.29 983.39 1099.72 969.84C1099.72 969.84 1099.72 957.82 1099.72 957.82C1101.24 957.97 1108.81 958.74 1122.44 960.12L1126.02 987.68Z" id="a2njPIRsXl"></path><path d="M1126.02 987.68C1126.34 991.72 1126.52 993.97 1126.55 994.41C1126.55 994.41 1098.29 983.39 1099.72 969.84C1099.72 969.84 1099.72 957.82 1099.72 957.82C1101.24 957.97 1108.81 958.74 1122.44 960.12L1126.02 987.68Z" id="c10uvJhZ75"></path><path d="M954.2 801.07C953.14 800.8 952.15 800.2 951.33 799.35C949.31 797.64 947.39 795.76 945.44 793.94C943.86 792.47 941.9 790.01 939.96 789.41C941.23 791.4 942.66 793.23 944.25 794.87C947.13 797.81 950.54 799.93 954.2 801.07Z" id="dgMCbh5tH"></path><path d="M946.86 807.85C947.76 812.13 947.71 816.61 946.7 820.85C946.25 819.54 942.62 809.08 942.17 807.77C941.38 805.54 940.59 803.3 939.64 801.17C939.23 800.26 936.62 796.47 936.92 795.68C937.72 793.45 943.83 802.46 944.68 803.72C945.59 804.94 946.32 806.34 946.86 807.85Z" id="c2IXtXDs30"></path><path d="M1079.37 871.56C1074.71 872.27 1070.29 874.47 1065.7 875.62C1061.44 876.8 1056.98 876.31 1052.97 874.21C1058.25 877.3 1065.5 877.4 1071.12 876.18C1074.21 875.73 1077.1 874.12 1079.37 871.56Z" id="a72FvO64B6"></path><path d="M1055.58 837.03C1050.33 833.42 1046.26 830.26 1045.22 829.51C1041.91 826.95 1037.91 824.36 1035.08 821.13C1042.04 828.65 1048.52 835 1057.94 837.73C1057.11 837.88 1056.26 837.63 1055.58 837.03Z" id="d9G2yzJBS"></path><path d="M1073.15 881.75C1074.97 881.29 1076.58 880.03 1077.65 878.21C1077 878.03 1076.32 878.16 1075.74 878.57C1070.19 881.37 1064.08 882.24 1058.13 881.09C1060.99 882.55 1064.64 882.26 1067.67 882.28C1069.51 882.38 1071.35 882.2 1073.15 881.75Z" id="b6boDV7Bm"></path><path d="M1023.25 982.41C1020.3 982.57 1017.34 982.51 1014.39 982.2C1013.43 982.13 1008.65 981.77 1000.05 981.12C995.75 980.79 993.36 980.61 992.88 980.57C992.03 980.57 988.58 980.57 990.28 978.53C991.14 977.53 995.93 978.17 997.17 978.12C1000.74 977.98 1003.62 977.98 1004.34 977.96C1009.08 977.96 1013.85 977.96 1018.59 978.31C1023.91 978.62 1029.15 979.1 1034.45 979.78C1030.8 981.1 1027.05 981.98 1023.25 982.41Z" id="antvNzoYp"></path><path d="M1009.74 990.28C1006.94 990.67 1004.11 990.81 1001.28 990.67C995.69 990.51 990.17 989.16 984.98 986.69C995.92 987.36 1006.89 987.75 1017.83 988.28C1015.39 988.16 1012.25 989.9 1009.74 990.28Z" id="b1oenCJUnl"></path><path d="M990.24 998.31C996.29 1000.37 1002.73 998.55 1008.88 996.73C1007.35 999.5 1004.58 1000.68 1001.81 1001.44C997.31 1002.8 992.62 1003.01 988.05 1002.04C986.61 1001.7 983.01 1001.08 982.31 999.29C981.13 996.66 985.77 997.02 987.11 997.28C988.17 997.54 989.22 997.88 990.24 998.31Z" id="b5HfWb5LHy"></path><path d="M1026.41 1012.55C1033.22 1014.57 1040.29 1011.79 1047.13 1009.92C1055.35 1007.68 1063.79 1006.75 1072.21 1007.14C1070.71 1007.14 1068.31 1008.72 1066.84 1009.25C1064.9 1009.95 1062.94 1010.61 1060.97 1011.19C1057.11 1012.32 1053.2 1013.25 1049.25 1013.92C1041.29 1015.3 1033.24 1015.72 1025.2 1015.18C1021.53 1014.93 1015.16 1015.38 1012.02 1013.17C1014.74 1011.23 1017.91 1010.41 1021.04 1010.83C1022.86 1011.28 1024.65 1011.85 1026.41 1012.55Z" id="alDOdMa92"></path><path d="M1023.61 751.84C1023.61 751.84 1023.96 771.17 1021.33 780C1020.5 782.75 1019.21 787.81 1017.8 793.5C1016.27 799.8 1014.59 806.86 1013.3 812.39C1012.01 817.92 1011.15 821.63 1011.15 821.63C1011.15 821.63 1005.23 879.39 1003.69 906.92C1003.69 907.4 1003.69 907.9 1003.61 908.36C1003.52 909.91 1003.38 911.52 1003.16 913.19C999.75 940.53 980.06 982.69 973.45 986.05C971.38 987.18 969.5 988.74 967.88 990.64C967.88 979.01 968.37 970.2 969.59 968.42C973.45 962.75 989.92 906.05 989.92 906.05C990.3 906.07 993.31 906.26 993.68 906.29C993.6 905.5 993.54 904.57 993.51 903.76C993.21 892.82 997.47 876.03 997.47 876.03C997.47 876.03 999.92 842.42 999.92 840.96C999.92 839.5 997.81 815.96 997.81 815.96C998.09 814.7 999.5 808.4 1002.03 797.07C1006.87 793.01 1009.56 790.76 1010.1 790.3C1011.11 775.72 1013.5 758.02 1019.22 753.19C1022.09 750.51 1024.38 747.04 1025.89 743.08C1027.03 743.27 1024.96 742.07 1024.96 742.07C1024.69 744.02 1023.88 749.88 1023.61 751.84Z" id="b1Qqhd92iB"></path><path d="M1026.7 741C1023.74 739.79 1020.48 740.23 1017.82 742.2C1013.77 745.64 1005.89 745.35 1003.78 744.73C1001.67 744.11 979.76 740.73 977.96 741.57C976.17 742.41 972.7 738.63 970.42 743.68C968.14 748.73 967.09 751.44 964.81 752.7C962.53 753.95 958.49 757.95 959.08 758.79C959.66 759.63 953.34 764.67 953.34 764.67C954.62 769.65 964.85 809.49 966.13 814.47C966.13 814.47 957.89 877.45 953.86 882.91C953.86 882.91 914.04 959.14 926.85 971.75C936.99 981.29 947.72 989.9 958.95 997.51C960.38 998.35 965.43 987.01 972.44 983.44C979.46 979.87 1001.21 932.61 1002.56 905.74C1003.91 878.86 1010.1 819.02 1010.1 819.02C1010.1 819.02 1017.65 786.25 1020.27 777.42C1022.89 768.6 1022.55 749.26 1022.55 749.26C1023.38 747.61 1025.87 742.65 1026.7 741Z" id="e1Un243Zrc"></path><path d="M1097.61 1012.89C1095.82 1017.42 1094.83 1019.94 1094.63 1020.45C1094.63 1020.45 1094.21 1022.7 1093.68 1026.27C1093.15 1026.19 1092.65 1025.92 1092.25 1025.5C1087.86 1021.29 1062.13 989.59 1060.86 961.44C1059.95 940.68 1060.38 922.79 1060.67 914.82C1060.76 912.31 1060.84 910.8 1060.84 910.48C1060.84 910.48 1060.84 910.48 1060.84 910.48C1060.84 910.48 1080.83 881.49 1078.55 871.22C1078.55 871.22 1071.01 805.97 1071.01 805.97C1070.96 805.48 1070.7 803.08 1070.24 798.75L1068.9 786.56L1065.72 757.06C1067.7 757.61 1068.8 757.92 1069.02 757.99C1069.58 758.91 1070.25 759.72 1071.01 760.41C1071.24 762.14 1072.37 770.79 1074.42 786.35L1086.27 801.98L1088.2 897.12C1084.93 907.32 1083.12 912.98 1082.76 914.12C1082.76 914.12 1078.32 914.36 1071.41 914.61C1071.37 914.61 1071.14 914.61 1070.74 914.61L1097.61 1012.89Z" id="caULjznmd"></path><path d="M1103.41 855.85C1103.41 855.85 1102.17 863.18 1102.17 863.18C1102.17 863.18 1103.05 875.38 1099.3 880.2C1099.3 880.2 1095 905.39 1095 905.39C1095 905.39 1089.09 925.55 1091.89 931.86C1092.91 934.14 1094.49 945.59 1096.06 959.33C1097.07 967.92 1098.06 977.34 1098.93 985.97C1100.52 1001.63 1101.71 1014.59 1101.71 1014.59C1101.71 1014.59 1098.54 1028.45 1094.16 1024.24C1089.77 1020.04 1064.04 988.33 1062.78 960.19C1061.92 940.42 1062.26 923.25 1062.55 914.79C1062.66 911.2 1062.78 909.17 1062.78 909.17C1062.78 909.17 1082.77 880.18 1080.49 869.9C1078.21 859.61 1072.95 804.64 1072.95 804.64C1072.88 804.08 1072.58 801.24 1072.03 796.14L1071.04 787.01L1070.81 785L1067.64 755.8C1067.64 755.8 1067.64 755.8 1067.64 755.8C1068.2 755.96 1087.87 761.28 1090.47 764.39C1093.07 767.5 1109.11 771.95 1109.11 771.95C1114.04 773.55 1117.86 778.23 1119.07 784.17C1119.22 784.76 1119.34 785.38 1119.45 786.01C1121.56 798.2 1120.89 799.66 1122.32 801.78C1123.76 803.89 1108.66 855.85 1108.66 855.85C1108.66 855.85 1103.75 853.53 1103.41 855.85Z" id="d6ODPUpzTE"></path><path d="M1081.48 971.51C1081.69 963.31 1089.93 960.36 1096.16 959.31C1097.17 967.87 1098.16 977.33 1099.05 985.95C1091.88 984.23 1081.23 980.26 1081.48 971.51Z" id="b1bxbSVrBm"></path><path d="M1118.22 983.53C1114.38 984.62 1110.49 985.38 1106.56 985.81C1106.56 985.81 1082.18 983.49 1082.53 970.25C1082.78 960.76 1093.8 958.23 1099.98 957.67C1101.35 957.51 1102.72 957.44 1104.09 957.46C1104.09 957.46 1122.34 978.87 1121.29 981.59C1121 982.32 1119.86 982.96 1118.22 983.53Z" id="a6oSrwnMoI"></path><path d="M1118.22 983.53C1111.87 973.34 1103 960.28 1098.66 959.12C1098.79 958.98 1099.85 957.81 1099.98 957.67C1101.35 957.51 1102.72 957.44 1104.09 957.46C1104.09 957.46 1122.34 978.87 1121.29 981.59C1121 982.32 1119.86 982.96 1118.22 983.53Z" id="a3VErooVpo"></path><path d="M1115.15 800.37C1119.45 801.13 1121.84 801.55 1122.32 801.64C1124.91 807.1 1127.79 812.36 1130.93 817.38C1132.85 820.25 1133.96 823.79 1134.08 827.46C1134.08 827.46 1144.61 846.15 1147.94 848.24C1147.94 848.24 1156.35 864.63 1156.35 864.63C1156.35 864.63 1164.6 871.13 1164.6 878.48C1164.75 884.61 1165.27 890.72 1166.18 896.76C1166.36 897.8 1164.96 910.84 1161.45 917.36C1157.93 923.89 1154.42 938.28 1154.6 940.85C1154.79 943.43 1144.78 956.82 1141.98 961.01C1139.65 964.93 1137.6 969.08 1135.85 973.41C1134.92 975.51 1127.48 992.31 1126.55 994.41C1126.55 994.41 1106.91 959.76 1099.72 957.87C1099.72 957.87 1107.78 948.63 1111.81 946.95C1115.84 945.27 1119.71 931.49 1119.88 928.27C1120.06 925.04 1123.57 914.61 1127.24 912.81C1130.91 911.01 1132.86 909.03 1131.29 906.08C1129.71 903.13 1131.29 897.49 1131.29 897.49C1131.29 897.49 1120.93 881.11 1119.53 871.74C1118.12 862.36 1108.66 855.99 1108.66 855.99C1108.29 854.92 1106.48 849.6 1103.22 840.02L1115.15 800.37Z" id="imBq3IdJ"></path><path d="M1155.39 872.34C1152.07 873.02 1148.57 873.9 1146.13 876.68C1145.17 877.89 1144.31 879.2 1143.56 880.6C1142.73 882.02 1135.96 892.32 1134.96 890.69C1133.28 888.31 1139.88 880.15 1141.24 878.76C1145.21 874.75 1150.2 872.48 1155.39 872.34Z" id="c5j0sStC1"></path><path d="M1130.35 864.57C1131.21 862.21 1131.74 859.69 1131.92 857.12C1132.43 852.82 1133.15 848.56 1134.08 844.36C1134.65 842.68 1134.54 840.78 1133.78 839.21C1133.4 837.87 1132.88 836.59 1132.23 835.4C1130.94 837.12 1130.57 841.12 1130.04 843.42C1129.38 846.27 1128.78 849.14 1128.2 852C1127.9 853.38 1125.52 868.82 1125.35 868.82C1127.53 868.59 1129.45 866.97 1130.35 864.57Z" id="aLe4Uy7Or"></path><path d="M1116.72 787.02C1113.85 789.75 1110.05 792.06 1109.69 796.37C1109.79 797.77 1109.64 799.18 1109.26 800.5C1108.34 802.39 1106.09 802.22 1104.3 801.86C1102.78 801.7 1101.33 801.06 1100.09 800.01C1098.21 798.08 1098.04 794.65 1096.61 792.23C1094.84 789.69 1092.19 788.29 1089.44 788.43C1086.76 788.33 1084.09 789.05 1081.41 789.19C1079.68 789.29 1077.96 789.15 1076.26 788.78C1075.7 788.67 1075.14 788.54 1074.59 788.36C1073.4 788.01 1072.23 787.53 1071.1 786.94C1070.51 786.66 1069.94 786.34 1069.39 785.98C1067.59 784.87 1065.93 783.49 1064.44 781.86C1061.82 778.97 1059.64 774.99 1059.85 770.71C1059.98 768.08 1060.97 765.66 1061.29 763.07C1062.36 755.65 1058.25 748.64 1053.79 743.34C1052.01 741.23 1050.11 739.18 1048.34 737.04C1045.57 733.98 1043.38 730.24 1041.93 726.08C1040.73 721.65 1040.34 716.97 1040.78 712.34C1041.18 707.65 1041.29 702.93 1041.11 698.23C1039.79 681.53 1027.89 668.74 1015.98 661.79C1015.93 661.75 1015.5 661.49 1015.45 661.46C1029.32 642.4 1053.46 640.42 1069.37 657.02C1085.29 673.63 1086.95 702.53 1073.08 721.59C1071.23 724.14 1069.14 726.43 1066.87 728.43C1066.74 728.96 1066.62 729.5 1066.52 730.01C1063.77 743.2 1065.59 751.2 1067.64 755.62C1067.64 755.62 1067.64 755.62 1067.64 755.62C1068.2 755.77 1087.87 761.09 1090.47 764.2C1093.07 767.31 1109.11 771.76 1109.11 771.76C1114.08 773.34 1117.93 778.05 1119.14 784.04C1118.43 785.14 1117.62 786.15 1116.72 787.02Z" id="cfqQHOAbM"></path><path d="M1015.71 646.67C1018.19 643.45 1015.71 638.17 1016.61 633.92C1017.59 629.19 1022.44 627.13 1026.48 627.63C1030.52 628.13 1034.31 630.36 1038.35 630.91C1044.64 631.75 1050.72 628.49 1056.84 626.58C1062.96 624.68 1070.36 624.57 1074.58 630.19C1078.8 635.8 1078.51 645.37 1083.76 649.44C1086.18 651.31 1089.24 651.52 1091.86 652.87C1094.73 654.64 1097.12 657.37 1098.72 660.72C1102.87 668.53 1104.7 677.8 1103.91 687.01C1103.46 691.99 1102.26 696.84 1101.77 701.82C1101.28 706.99 1101.57 712.22 1102.63 717.27C1103.74 722.42 1106.13 727.99 1110.42 729.63C1111.41 729.9 1112.37 730.29 1113.29 730.82C1115.77 732.67 1115.44 737.04 1114.81 740.44C1114.55 741.85 1112.51 753.12 1112.26 754.53C1114.71 756.77 1118.52 755.8 1120.86 758.16C1121.8 759.18 1122.49 760.49 1122.87 761.94C1125.23 770.01 1123.18 778.99 1117.72 784.5C1114.85 787.23 1111.05 789.53 1110.69 793.82C1110.8 795.22 1110.65 796.64 1110.26 797.96C1109.36 799.85 1107.09 799.68 1105.3 799.32C1103.79 799.15 1102.35 798.51 1101.11 797.46C1099.22 795.54 1099.06 792.11 1097.63 789.69C1095.86 787.16 1093.21 785.75 1090.46 785.89C1087.76 785.79 1085.11 786.51 1082.41 786.66C1076.19 786.97 1070.12 784.34 1065.5 779.35C1062.86 776.45 1060.7 772.48 1060.9 768.19C1061.03 765.58 1062.02 763.14 1062.33 760.54C1063.39 753.14 1059.29 746.12 1054.83 740.81C1050.37 735.51 1045.14 730.61 1042.96 723.56C1040.23 714.81 1042.87 705.06 1042.14 695.79C1040.82 679.08 1028.93 666.3 1017.01 659.33C1014.36 657.7 1009.84 653.56 1012.93 649.35C1013.72 648.27 1014.91 647.72 1015.71 646.67Z" id="p48ZRBgBxD"></path><path d="M1103.23 785.79C1101.47 783.26 1098.82 781.85 1096.06 781.98C1093.37 781.87 1090.7 782.59 1088.02 782.75C1081.78 783.08 1075.68 780.44 1071.05 775.42C1068.41 772.53 1066.26 768.55 1066.46 764.27C1066.59 761.64 1067.58 759.2 1067.9 756.63C1068.97 749.21 1064.86 742.19 1060.4 736.88C1055.94 731.57 1050.72 726.68 1048.52 719.62C1045.81 710.9 1048.52 701.15 1047.72 691.86C1046.39 675.15 1034.5 662.37 1022.59 655.4C1019.81 653.77 1015.29 649.63 1018.38 645.42C1019.15 644.34 1020.34 643.79 1021.15 642.74C1023.63 639.53 1021.15 634.24 1022.06 630C1022.24 629.16 1022.55 628.36 1022.97 627.65C1019.97 628.32 1017.23 630.34 1016.5 633.78C1015.62 638.04 1018.08 643.31 1015.6 646.54C1014.79 647.58 1013.6 648.13 1012.81 649.2C1009.73 653.41 1014.25 657.56 1017.03 659.18C1028.95 666.15 1040.84 678.94 1042.16 695.63C1042.89 704.92 1040.25 714.68 1042.97 723.42C1045.15 730.46 1050.39 735.44 1054.85 740.68C1059.31 745.91 1063.45 752.99 1062.35 760.41C1061.74 762.92 1061.26 765.47 1060.91 768.05C1060.71 772.32 1062.88 776.31 1065.52 779.19C1070.14 784.22 1076.23 786.86 1082.47 786.53C1085.16 786.37 1087.82 785.67 1090.51 785.75C1093.27 785.63 1095.91 787.04 1097.68 789.57C1099.12 791.99 1099.28 795.42 1101.17 797.34C1102.41 798.39 1103.85 799.02 1105.36 799.18C1107.15 799.58 1109.42 799.71 1110.32 797.84C1110.64 797.08 1110.78 796.22 1110.72 795.37C1109.28 795.2 1107.9 794.58 1106.72 793.57C1104.83 791.63 1104.67 788.21 1103.23 785.79Z" id="a1gNbqlvcc"></path><path d="M897.95 691.51L798.76 691.51L798.76 574.47L898.03 574.47L897.95 691.51ZM800.19 515.03C800.19 333.14 944.58 343.77 944.58 228.7C944.58 165.32 901.25 114.54 848.32 114.54C795.39 114.54 752.07 169.28 752.07 230.5C742.45 230.5 665.44 230.5 655.82 230.5C655.63 103.42 741.52 0.22 847.66 0C847.88 0 848.1 0 848.32 0C954.64 0 1040.82 101.57 1040.82 228.7C1040.82 372.59 896.45 388.97 896.45 515.03C896.46 515.03 809.82 515.03 800.19 515.03Z" id="d5eD5qJ7s"></path><path d="M403.2 656.65L377.61 656.65L377.61 626.39L403.2 626.39L403.2 656.65ZM378 611.15C378 564.26 415.21 567 415.21 537.3C415.16 520.97 404.06 507.79 390.42 507.85C390.41 507.85 390.41 507.85 390.4 507.85C376.79 508.23 365.85 521.43 365.65 537.73C363.17 537.73 343.32 537.73 340.84 537.73C341.19 504.91 363.69 478.64 391.1 479.06C417.87 479.46 439.55 505.22 440.1 537.27C440.02 574.36 402.81 578.59 402.81 611.08C402.81 611.09 380.48 611.15 378 611.15Z" id="bibrtQGZ7"></path><path d="M596.92 866.86L571.33 866.86L571.33 836.69L596.92 836.69L596.92 866.86ZM571.73 821.37C571.73 774.47 608.95 777.22 608.95 747.53C608.89 731.21 597.8 718.03 584.17 718.09C584.16 718.09 584.15 718.09 584.14 718.09C570.46 718.39 559.45 731.63 559.26 748.01C556.78 748.01 536.93 748.01 534.45 748.01C534.79 715.19 557.29 688.92 584.71 689.33C611.48 689.74 633.15 715.49 633.7 747.54C633.75 784.64 596.54 788.88 596.54 821.37C591.58 821.37 574.21 821.37 571.73 821.37Z" id="a1AROS9Hxe"></path><path d="M714.72 494.73L696.17 494.73L696.17 472.91L714.72 472.91L714.72 494.73ZM696.46 461.75C696.46 427.78 723.44 429.75 723.44 408.25C723.39 396.42 715.34 386.87 705.45 386.93C705.45 386.93 705.45 386.93 705.45 386.93C695.56 387.17 687.6 396.75 687.47 408.6C685.67 408.6 671.28 408.6 669.48 408.6C669.4 384.81 685.44 365.45 705.31 365.36C725.17 365.26 741.34 384.47 741.42 408.25C741.39 435.13 714.44 438.2 714.44 461.75C710.85 461.75 698.26 461.75 696.46 461.75Z" id="gBTjyslOE"></path><path d="M1031.43 525.54L1020.94 525.54L1020.94 513.18L1031.43 513.18L1031.43 525.54ZM1021.04 506.91C1021.04 487.71 1036.29 488.83 1036.29 476.67C1036.29 470.03 1031.8 464.65 1026.25 464.65C1026.21 464.65 1026.17 464.65 1026.14 464.65C1020.55 464.79 1016.05 470.2 1015.97 476.89C1014.95 476.89 1006.82 476.89 1005.8 476.89C1006.05 463.45 1015.36 452.79 1026.59 453.09C1037.4 453.38 1046.13 463.76 1046.46 476.7C1046.51 491.8 1031.27 493.6 1031.27 506.91C1029.23 506.91 1022.07 506.91 1021.04 506.91Z" id="cJYTyujZV"></path><path d="M1191.71 1087.88L1181.22 1087.88L1181.22 1075.52L1191.71 1075.52L1191.71 1087.88ZM1181.38 1069.25C1181.38 1050.04 1196.64 1051.17 1196.64 1039.01C1196.6 1032.33 1192.05 1026.95 1186.47 1026.99C1180.88 1027.12 1176.38 1032.54 1176.3 1039.23C1175.29 1039.23 1167.15 1039.23 1166.14 1039.23C1166.39 1025.79 1175.69 1015.13 1186.92 1015.43C1197.73 1015.72 1206.47 1026.1 1206.79 1039.04C1206.85 1054.21 1191.61 1055.94 1191.61 1069.25C1191.59 1069.25 1182.4 1069.25 1181.38 1069.25Z" id="b68rSBFXK"></path></defs><g><g><g><use xlink:href="#a181y8Ewq1" opacity="1" fill="#6c63ff" fill-opacity="1"></use><g><use xlink:href="#a181y8Ewq1" opacity="1" fill-opacity="0" stroke="#000000" stroke-width="1" stroke-opacity="0"></use></g></g><g><use xlink:href="#b3eFCxzSCd" opacity="1" fill="#9aff63" fill-opacity="1"></use><g><use xlink:href="#b3eFCxzSCd" opacity="1" fill-opacity="0" stroke="#000000" stroke-width="1" stroke-opacity="0"></use></g></g><g><use xlink:href="#g4Y5hTVvF" opacity="1" fill="#6c63ff" fill-opacity="1"></use><g><use xlink:href="#g4Y5hTVvF" opacity="1" fill-opacity="0" stroke="#000000" stroke-width="1" stroke-opacity="0"></use></g></g><g><use xlink:href="#cpO9wKSTI" opacity="1" fill="#6c63ff" fill-opacity="1"></use><g><use xlink:href="#cpO9wKSTI" opacity="1" fill-opacity="0" stroke="#000000" stroke-width="1" stroke-opacity="0"></use></g></g><g><use xlink:href="#c13ehpJ501" opacity="1" fill="#6c63ff" fill-opacity="1"></use><g><use xlink:href="#c13ehpJ501" opacity="1" fill-opacity="0" stroke="#000000" stroke-width="1" stroke-opacity="0"></use></g></g><g><use xlink:href="#a20sOjXG1J" opacity="1" fill="#6c63ff" fill-opacity="1"></use><g><use xlink:href="#a20sOjXG1J" opacity="1" fill-opacity="0" stroke="#000000" stroke-width="1" stroke-opacity="0"></use></g></g><g><use xlink:href="#c1FM2pZzAE" opacity="1" fill="#6c63ff" fill-opacity="1"></use><g><use xlink:href="#c1FM2pZzAE" opacity="1" fill-opacity="0" stroke="#000000" stroke-width="1" stroke-opacity="0"></use></g></g><g><use xlink:href="#cwe7I3Ns" opacity="1" fill="#6c63ff" fill-opacity="1"></use><g><use xlink:href="#cwe7I3Ns" opacity="1" fill-opacity="0" stroke="#000000" stroke-width="1" stroke-opacity="0"></use></g></g><g><use xlink:href="#b12b6r92do" opacity="1" fill="url(#gradienta1M0AVK2T)"></use><g><use xlink:href="#b12b6r92do" opacity="1" fill-opacity="0" stroke="#000000" stroke-width="1" stroke-opacity="0"></use></g></g><g><use xlink:href="#b1mj5LQdlu" opacity="1" fill="#4c4981" fill-opacity="1"></use><g><use xlink:href="#b1mj5LQdlu" opacity="1" fill-opacity="0" stroke="#000000" stroke-width="1" stroke-opacity="0"></use></g></g><g><use xlink:href="#b1Z8C0uBzX" opacity="1" fill="#000000" fill-opacity="1"></use><g><use xlink:href="#b1Z8C0uBzX" opacity="1" fill-opacity="0" stroke="#000000" stroke-width="1" stroke-opacity="0"></use></g></g><g><use xlink:href="#b1HevSgFiV" opacity="1" fill="#ae6e79" fill-opacity="1"></use><g><use xlink:href="#b1HevSgFiV" opacity="1" fill-opacity="0" stroke="#000000" stroke-width="1" stroke-opacity="0"></use></g></g><g><use xlink:href="#cJH3mUybP" opacity="1" fill="#4c4981" fill-opacity="1"></use><g><use xlink:href="#cJH3mUybP" opacity="1" fill-opacity="0" stroke="#000000" stroke-width="1" stroke-opacity="0"></use></g></g><g><use xlink:href="#aayPknpE" opacity="1" fill="#444053" fill-opacity="1"></use><g><use xlink:href="#aayPknpE" opacity="1" fill-opacity="0" stroke="#000000" stroke-width="1" stroke-opacity="0"></use></g></g><g><use xlink:href="#a1W9ImSO5d" opacity="1" fill="#444053" fill-opacity="1"></use><g><use xlink:href="#a1W9ImSO5d" opacity="1" fill-opacity="0" stroke="#000000" stroke-width="1" stroke-opacity="0"></use></g></g><g><use xlink:href="#a1oTSolg1L" opacity="1" fill="#ae6e79" fill-opacity="1"></use><g><use xlink:href="#a1oTSolg1L" opacity="1" fill-opacity="0" stroke="#000000" stroke-width="1" stroke-opacity="0"></use></g></g><g><use xlink:href="#d2otOMOYxW" opacity="1" fill="#000000" fill-opacity="1"></use><g><use xlink:href="#d2otOMOYxW" opacity="1" fill-opacity="0" stroke="#000000" stroke-width="1" stroke-opacity="0"></use></g></g><g><use xlink:href="#dwjNSMYz3" opacity="1" fill="#ae6e79" fill-opacity="1"></use><g><use xlink:href="#dwjNSMYz3" opacity="1" fill-opacity="0" stroke="#000000" stroke-width="1" stroke-opacity="0"></use></g></g><g><use xlink:href="#e2MSi9Jal" opacity="1" fill="#ae6e79" fill-opacity="1"></use><g><use xlink:href="#e2MSi9Jal" opacity="1" fill-opacity="0" stroke="#000000" stroke-width="1" stroke-opacity="0"></use></g></g><g><use xlink:href="#g5nhggQVF" opacity="1" fill="#000000" fill-opacity="1"></use><g><use xlink:href="#g5nhggQVF" opacity="1" fill-opacity="0" stroke="#000000" stroke-width="1" stroke-opacity="0"></use></g></g><g><use xlink:href="#atDHiLPm5" opacity="1" fill="#ae6e79" fill-opacity="1"></use><g><use xlink:href="#atDHiLPm5" opacity="1" fill-opacity="0" stroke="#000000" stroke-width="1" stroke-opacity="0"></use></g></g><g><use xlink:href="#ceg4L9x4n" opacity="1" fill="#000000" fill-opacity="1"></use><g><use xlink:href="#ceg4L9x4n" opacity="1" fill-opacity="0" stroke="#000000" stroke-width="1" stroke-opacity="0"></use></g></g><g><use xlink:href="#dBesRBRO6" opacity="1" fill="#ffffff" fill-opacity="1"></use><g><use xlink:href="#dBesRBRO6" opacity="1" fill-opacity="0" stroke="#000000" stroke-width="1" stroke-opacity="0"></use></g></g><g><use xlink:href="#a9FpuDPHv" opacity="1" fill="#000000" fill-opacity="1"></use><g><use xlink:href="#a9FpuDPHv" opacity="1" fill-opacity="0" stroke="#000000" stroke-width="1" stroke-opacity="0"></use></g></g><g><use xlink:href="#h1WC78lCzr" opacity="1" fill="#4c4981" fill-opacity="1"></use><g><use xlink:href="#h1WC78lCzr" opacity="1" fill-opacity="0" stroke="#000000" stroke-width="1" stroke-opacity="0"></use></g></g><g><use xlink:href="#aJI8irKMe" opacity="1" fill="#000000" fill-opacity="1"></use><g><use xlink:href="#aJI8irKMe" opacity="1" fill-opacity="0" stroke="#000000" stroke-width="1" stroke-opacity="0"></use></g></g><g><use xlink:href="#aYR41z60R" opacity="1" fill="#000000" fill-opacity="1"></use><g><use xlink:href="#aYR41z60R" opacity="1" fill-opacity="0" stroke="#000000" stroke-width="1" stroke-opacity="0"></use></g></g><g><use xlink:href="#gpUvy39QQ" opacity="1" fill="#000000" fill-opacity="1"></use><g><use xlink:href="#gpUvy39QQ" opacity="1" fill-opacity="0" stroke="#000000" stroke-width="1" stroke-opacity="0"></use></g></g><g><use xlink:href="#c6NSMZSMK" opacity="1" fill="#444053" fill-opacity="1"></use><g><use xlink:href="#c6NSMZSMK" opacity="1" fill-opacity="0" stroke="#000000" stroke-width="1" stroke-opacity="0"></use></g></g><g><use xlink:href="#a2njPIRsXl" opacity="1" fill="#4c4981" fill-opacity="1"></use><g><use xlink:href="#a2njPIRsXl" opacity="1" fill-opacity="0" stroke="#000000" stroke-width="1" stroke-opacity="0"></use></g></g><g><use xlink:href="#c10uvJhZ75" opacity="1" fill="#000000" fill-opacity="1"></use><g><use xlink:href="#c10uvJhZ75" opacity="1" fill-opacity="0" stroke="#000000" stroke-width="1" stroke-opacity="0"></use></g></g><g><use xlink:href="#dgMCbh5tH" opacity="1" fill="#000000" fill-opacity="1"></use><g><use xlink:href="#dgMCbh5tH" opacity="1" fill-opacity="0" stroke="#000000" stroke-width="1" stroke-opacity="0"></use></g></g><g><use xlink:href="#c2IXtXDs30" opacity="1" fill="#000000" fill-opacity="1"></use><g><use xlink:href="#c2IXtXDs30" opacity="1" fill-opacity="0" stroke="#000000" stroke-width="1" stroke-opacity="0"></use></g></g><g><use xlink:href="#a72FvO64B6" opacity="1" fill="#000000" fill-opacity="1"></use><g><use xlink:href="#a72FvO64B6" opacity="1" fill-opacity="0" stroke="#000000" stroke-width="1" stroke-opacity="0"></use></g></g><g><use xlink:href="#d9G2yzJBS" opacity="1" fill="#000000" fill-opacity="1"></use><g><use xlink:href="#d9G2yzJBS" opacity="1" fill-opacity="0" stroke="#000000" stroke-width="1" stroke-opacity="0"></use></g></g><g><use xlink:href="#b6boDV7Bm" opacity="1" fill="#000000" fill-opacity="1"></use><g><use xlink:href="#b6boDV7Bm" opacity="1" fill-opacity="0" stroke="#000000" stroke-width="1" stroke-opacity="0"></use></g></g><g><use xlink:href="#antvNzoYp" opacity="1" fill="#000000" fill-opacity="1"></use><g><use xlink:href="#antvNzoYp" opacity="1" fill-opacity="0" stroke="#000000" stroke-width="1" stroke-opacity="0"></use></g></g><g><use xlink:href="#b1oenCJUnl" opacity="1" fill="#000000" fill-opacity="1"></use><g><use xlink:href="#b1oenCJUnl" opacity="1" fill-opacity="0" stroke="#000000" stroke-width="1" stroke-opacity="0"></use></g></g><g><use xlink:href="#b5HfWb5LHy" opacity="1" fill="#000000" fill-opacity="1"></use><g><use xlink:href="#b5HfWb5LHy" opacity="1" fill-opacity="0" stroke="#000000" stroke-width="1" stroke-opacity="0"></use></g></g><g><use xlink:href="#alDOdMa92" opacity="1" fill="#000000" fill-opacity="1"></use><g><use xlink:href="#alDOdMa92" opacity="1" fill-opacity="0" stroke="#000000" stroke-width="1" stroke-opacity="0"></use></g></g><g><use xlink:href="#b1Qqhd92iB" opacity="1" fill="#000000" fill-opacity="1"></use><g><use xlink:href="#b1Qqhd92iB" opacity="1" fill-opacity="0" stroke="#000000" stroke-width="1" stroke-opacity="0"></use></g></g><g><use xlink:href="#e1Un243Zrc" opacity="1" fill="#4c4981" fill-opacity="1"></use><g><use xlink:href="#e1Un243Zrc" opacity="1" fill-opacity="0" stroke="#000000" stroke-width="1" stroke-opacity="0"></use></g></g><g><use xlink:href="#caULjznmd" opacity="1" fill="#000000" fill-opacity="1"></use><g><use xlink:href="#caULjznmd" opacity="1" fill-opacity="0" stroke="#000000" stroke-width="1" stroke-opacity="0"></use></g></g><g><use xlink:href="#d6ODPUpzTE" opacity="1" fill="#4c4981" fill-opacity="1"></use><g><use xlink:href="#d6ODPUpzTE" opacity="1" fill-opacity="0" stroke="#000000" stroke-width="1" stroke-opacity="0"></use></g></g><g><use xlink:href="#b1bxbSVrBm" opacity="1" fill="#000000" fill-opacity="1"></use><g><use xlink:href="#b1bxbSVrBm" opacity="1" fill-opacity="0" stroke="#000000" stroke-width="1" stroke-opacity="0"></use></g></g><g><use xlink:href="#a6oSrwnMoI" opacity="1" fill="#ae6e79" fill-opacity="1"></use><g><use xlink:href="#a6oSrwnMoI" opacity="1" fill-opacity="0" stroke="#000000" stroke-width="1" stroke-opacity="0"></use></g></g><g><use xlink:href="#a3VErooVpo" opacity="1" fill="#000000" fill-opacity="1"></use><g><use xlink:href="#a3VErooVpo" opacity="1" fill-opacity="0" stroke="#000000" stroke-width="1" stroke-opacity="0"></use></g></g><g><use xlink:href="#imBq3IdJ" opacity="1" fill="#4c4981" fill-opacity="1"></use><g><use xlink:href="#imBq3IdJ" opacity="1" fill-opacity="0" stroke="#000000" stroke-width="1" stroke-opacity="0"></use></g></g><g><use xlink:href="#c5j0sStC1" opacity="1" fill="#000000" fill-opacity="1"></use><g><use xlink:href="#c5j0sStC1" opacity="1" fill-opacity="0" stroke="#000000" stroke-width="1" stroke-opacity="0"></use></g></g><g><use xlink:href="#aLe4Uy7Or" opacity="1" fill="#000000" fill-opacity="1"></use><g><use xlink:href="#aLe4Uy7Or" opacity="1" fill-opacity="0" stroke="#000000" stroke-width="1" stroke-opacity="0"></use></g></g><g><use xlink:href="#cfqQHOAbM" opacity="1" fill="#000000" fill-opacity="1"></use><g><use xlink:href="#cfqQHOAbM" opacity="1" fill-opacity="0" stroke="#000000" stroke-width="1" stroke-opacity="0"></use></g></g><g><use xlink:href="#p48ZRBgBxD" opacity="1" fill="#444053" fill-opacity="1"></use><g><use xlink:href="#p48ZRBgBxD" opacity="1" fill-opacity="0" stroke="#000000" stroke-width="1" stroke-opacity="0"></use></g></g><g><use xlink:href="#a1gNbqlvcc" opacity="1" fill="#000000" fill-opacity="1"></use><g><use xlink:href="#a1gNbqlvcc" opacity="1" fill-opacity="0" stroke="#000000" stroke-width="1" stroke-opacity="0"></use></g></g><g><use xlink:href="#d5eD5qJ7s" opacity="1" fill="#6c63ff" fill-opacity="1"></use><g><use xlink:href="#d5eD5qJ7s" opacity="1" fill-opacity="0" stroke="#000000" stroke-width="1" stroke-opacity="0"></use></g></g><g><use xlink:href="#bibrtQGZ7" opacity="1" fill="#6c63ff" fill-opacity="1"></use><g><use xlink:href="#bibrtQGZ7" opacity="1" fill-opacity="0" stroke="#000000" stroke-width="1" stroke-opacity="0"></use></g></g><g><use xlink:href="#a1AROS9Hxe" opacity="1" fill="#6c63ff" fill-opacity="1"></use><g><use xlink:href="#a1AROS9Hxe" opacity="1" fill-opacity="0" stroke="#000000" stroke-width="1" stroke-opacity="0"></use></g></g><g><use xlink:href="#gBTjyslOE" opacity="1" fill="#6c63ff" fill-opacity="1"></use><g><use xlink:href="#gBTjyslOE" opacity="1" fill-opacity="0" stroke="#000000" stroke-width="1" stroke-opacity="0"></use></g></g><g><use xlink:href="#cJYTyujZV" opacity="1" fill="#6c63ff" fill-opacity="1"></use><g><use xlink:href="#cJYTyujZV" opacity="1" fill-opacity="0" stroke="#000000" stroke-width="1" stroke-opacity="0"></use></g></g><g><use xlink:href="#b68rSBFXK" opacity="1" fill="#6c63ff" fill-opacity="1"></use><g><use xlink:href="#b68rSBFXK" opacity="1" fill-opacity="0" stroke="#000000" stroke-width="1" stroke-opacity="0"></use></g></g></g></g></svg>